<svg width="304" height="304" viewBox="0 0 304 304" fill="none" xmlns="http://www.w3.org/2000/svg">
<path d="M178.028 64.7478H102.652V42.1793H178.028V64.7478Z" fill="#505050"/>
<path d="M221.007 142.298V104.068C193.843 104.068 178.028 100.863 178.028 83.2864H129.235V142.298H221.007Z" fill="#505050"/>
<path d="M109.382 142.298V83.7347H47.4668V142.298H109.382Z" fill="#505050"/>
<path d="M295.287 142.298H302.372C302.372 128.547 300.761 115.804 297.776 104.068H242.971V142.298H295.287Z" fill="#505050"/>
<path d="M159.52 19.9806H230.263C208.742 8.76297 184.261 2.66173 159.52 1.67686V19.9806Z" fill="#505050"/>
<path d="M143.36 19.9806V1.76073C119.095 2.97935 95.1465 9.12496 74.0653 20.1976L143.36 19.9806Z" fill="#505050"/>
<path d="M79.434 42.1793H43.3805L24.2913 64.7478H79.434V42.1793Z" fill="#505050"/>
<path d="M189.7 64.7478C192.035 74.3199 198.323 84.5564 207.572 90.3347L214.247 77.5412C208.385 75.6627 206.053 69.6658 205.311 64.7478H189.7Z" fill="#505050"/>
<path d="M226.472 95.1347C229.37 95.1347 231.966 94.7981 234.272 94.1753L227.597 79.4615C224.101 80.225 216.537 80.9098 214.247 77.5412L207.572 90.3347C212.939 93.6885 219.304 95.1347 226.472 95.1347Z" fill="#505050"/>
<path d="M223.75 70.9822C222.759 71.4642 221.647 71.7347 220.472 71.7347C219.446 71.7347 218.468 71.5288 217.578 71.1561L214.247 77.5412C216.537 80.9098 224.101 80.225 227.597 79.4615L223.75 70.9822Z" fill="#505050"/>
<path d="M212.989 64.7478H205.311C206.053 69.6658 208.385 75.6627 214.247 77.5412L217.578 71.1561C215.022 70.0864 213.184 67.6423 212.989 64.7478Z" fill="#505050"/>
<path d="M234.334 74.2412L226.5 68.6967C225.784 69.663 224.841 70.451 223.75 70.9822L227.597 79.4615C231.505 77.9696 233.717 75.3597 234.334 74.2412Z" fill="#505050"/>
<path d="M234.272 94.1753C240.741 92.4277 244.927 88.4267 247.112 83.2864L234.334 74.2412C233.717 75.3597 231.505 77.9696 227.597 79.4615L234.272 94.1753Z" fill="#505050"/>
<path d="M247.112 83.2864C249.392 77.9249 249.496 71.3239 247.746 64.7478H234.334C234.654 66.9942 235.103 72.0379 234.334 74.2412L247.112 83.2864Z" fill="#505050"/>
<path d="M247.746 64.7478C245.494 56.2862 240.174 47.8656 232.472 42.1793L226.697 53.4635C230.707 56.0061 234.272 60.0347 234.334 64.7478H247.746Z" fill="#505050"/>
<path d="M224.441 57.8702C226.561 59.1954 227.972 61.5503 227.972 64.2347C227.972 64.4071 227.966 64.5782 227.954 64.7478H234.334C234.272 60.0347 230.707 56.0061 226.697 53.4635L224.441 57.8702Z" fill="#505050"/>
<path d="M234.334 74.2412C235.103 72.0379 234.654 66.9942 234.334 64.7478H227.954C227.855 66.2215 227.329 67.5784 226.5 68.6967L234.334 74.2412Z" fill="#505050"/>
<path d="M211.172 35.1347C209.915 35.1347 208.715 35.1979 207.572 35.3203L214.247 50.0341C218.38 50.0092 223.044 51.0087 226.697 53.4635L232.472 42.1793C226.638 37.8728 219.439 35.1347 211.172 35.1347Z" fill="#505050"/>
<path d="M217.553 57.3235C218.45 56.9443 219.437 56.7347 220.472 56.7347C221.929 56.7347 223.29 57.1506 224.441 57.8702L226.697 53.4635C223.044 51.0087 218.38 50.0092 214.247 50.0341L217.553 57.3235Z" fill="#505050"/>
<path d="M206.043 55.1912L214.06 60.3409C214.875 59.0026 216.097 57.9394 217.553 57.3235L214.247 50.0341C211.842 50.2599 206.834 51.6075 206.043 55.1912Z" fill="#505050"/>
<path d="M207.572 35.3203C199.334 36.2019 193.995 40.1516 191.164 45.6347L206.043 55.1912C206.834 51.6075 211.842 50.2599 214.247 50.0341L207.572 35.3203Z" fill="#505050"/>
<path d="M191.164 45.6347C188.387 51.013 188.022 57.8669 189.7 64.7478H205.311C203.118 61.613 204.885 57.0706 206.043 55.1912L191.164 45.6347Z" fill="#505050"/>
<path d="M206.043 55.1912C204.885 57.0706 203.118 61.613 205.311 64.7478H212.989C212.977 64.5782 212.972 64.4071 212.972 64.2347C212.972 62.8088 213.369 61.4759 214.06 60.3409L206.043 55.1912Z" fill="#505050"/>
<path fill-rule="evenodd" clip-rule="evenodd" d="M242.971 104.068H297.776C287.766 64.7053 262.293 36.6762 230.263 19.9806H159.52V1.67686C154.136 1.46254 148.74 1.4905 143.36 1.76073V19.9806L74.0653 20.1976C48.06 33.8565 26.4183 55.0129 13.9309 83.6668C14.0001 83.5381 14.0695 83.4113 14.1391 83.2864H31.9879V142.298H47.4668V83.7347H109.382V142.298H129.235V83.2864H178.028C178.028 100.863 193.843 104.068 221.007 104.068V142.298H242.971V104.068ZM234.272 94.1753C231.966 94.7981 229.37 95.1347 226.472 95.1347C219.304 95.1347 212.939 93.6885 207.572 90.3347C198.323 84.5564 192.035 74.3199 189.7 64.7478C188.022 57.8669 188.387 51.013 191.164 45.6347C193.995 40.1516 199.334 36.2019 207.572 35.3203C208.715 35.1979 209.915 35.1347 211.172 35.1347C219.439 35.1347 226.638 37.8728 232.472 42.1793C240.174 47.8656 245.494 56.2862 247.746 64.7478C249.496 71.3239 249.392 77.9249 247.112 83.2864C244.927 88.4267 240.741 92.4277 234.272 94.1753ZM102.652 64.7478H178.028V42.1793H102.652V64.7478ZM43.3805 42.1793H79.434V64.7478H24.2913L43.3805 42.1793Z" fill="#A1A1A1"/>
<path d="M2.37157 142.298H9.76377H31.9879V83.2864H14.1391C14.0695 83.4113 14.0001 83.5381 13.9309 83.6668C11.1123 90.1342 8.76013 96.9836 6.92939 104.215C6.03544 107.922 5.23684 111.748 4.55653 115.494C3.12507 123.957 2.37157 132.892 2.37157 142.298Z" fill="#505050"/>
<path d="M295.287 154.082V142.298H242.971H221.007H129.235H109.382H47.4668H31.9879H9.76377V154.082H31.9879H47.4668H109.382H129.235H221.007H242.971H295.287Z" fill="#A1A1A1"/>
<path d="M9.76377 154.082H2.37157C2.37157 167.408 3.78683 179.842 6.42294 191.381H31.9879V154.082H9.76377Z" fill="#505050"/>
<path d="M109.382 191.381V154.082H47.4668V191.381H109.382Z" fill="#505050"/>
<path d="M221.007 191.381V154.082H129.235V191.381H221.007Z" fill="#505050"/>
<path d="M302.372 154.082H295.287H242.971V191.381H298.51C298.569 191.11 298.627 190.839 298.685 190.567C300.026 183.726 302.303 159.143 302.372 154.082Z" fill="#505050"/>
<path d="M289.438 219.323H189.7V246.23H273.51C279.697 238.154 285.065 229.187 289.438 219.323Z" fill="#505050"/>
<path d="M174.326 219.323H90.5383V246.23H174.326V219.323Z" fill="#505050"/>
<path d="M74.0653 219.323H15.8847C20.4247 229.169 25.9882 238.14 32.389 246.23H74.0653V219.323Z" fill="#505050"/>
<path d="M240.442 276.764H152.79V301.531C183.798 301.723 214.782 293.513 240.442 276.764Z" fill="#505050"/>
<path fill-rule="evenodd" clip-rule="evenodd" d="M298.685 190.567C301.087 179.278 302.372 167.118 302.372 154.082C302.303 159.143 300.026 183.726 298.685 190.567ZM242.971 191.381V154.082H221.007V191.381H129.235V154.082H109.382V191.381H47.4668V154.082H31.9879V191.381H6.42294C8.70442 201.367 11.9004 210.682 15.8847 219.323H74.0653V246.23H32.389C42.0242 258.408 53.5566 268.592 66.3501 276.764H132.6V300.214C139.295 301.05 146.043 301.49 152.79 301.531V276.764H240.442C252.93 268.613 264.156 258.441 273.51 246.23H189.7V219.323H289.438C293.263 210.696 296.326 201.382 298.51 191.381H242.971ZM174.326 219.323H90.5383V246.23H174.326V219.323Z" fill="#A1A1A1"/>
<path d="M132.6 276.764H66.3501C86.1911 289.439 109.065 297.276 132.6 300.214V276.764Z" fill="#505050"/>
<path d="M2.37157 142.298L0.911303 142.641L1.18305 143.798H2.37157V142.298ZM302.372 142.298V143.798H303.872V142.298H302.372ZM302.372 154.082H303.872V152.582H302.372V154.082ZM2.37157 154.082V152.582H0.871569V154.082H2.37157ZM247.746 64.7478L249.195 64.3621L247.746 64.7478ZM189.7 64.7478L188.243 65.1032L189.7 64.7478ZM191.164 45.6347L189.831 44.9464L191.164 45.6347ZM220.314 62.9553C220.899 63.541 221.849 63.541 222.435 62.9553C223.021 62.3695 223.021 61.4197 222.435 60.8339L220.314 62.9553ZM220.874 61.1243L221.746 59.9037L220.874 61.1243ZM220.783 61.4048L219.306 61.6666L220.783 61.4048ZM220.803 60.7212L221.311 62.1326H221.311L220.803 60.7212ZM221.221 61.3334L220.161 62.3941L222.424 64.6578L222.715 61.4696L221.221 61.3334ZM221.395 60.6294L220.458 59.4581L221.395 60.6294ZM222.109 59.4152L223.198 60.4468L222.109 59.4152ZM221.92 58.5377L223.059 57.5616L221.92 58.5377ZM220.405 58.1755L220.111 59.6464L220.405 58.1755ZM219.283 58.3745L217.808 58.6494L219.283 58.3745ZM220.619 58.9765L219.787 60.2246L220.619 58.9765ZM222.558 59.3642L222.194 60.8194L222.558 59.3642ZM224.354 59.7825L223.736 61.1496V61.1496L224.354 59.7825ZM224.884 60.2417L223.557 60.9403L224.884 60.2417ZM225.507 61.0222L224.057 61.4087L225.507 61.0222ZM226.017 62.5731L227.276 61.7582L226.017 62.5731ZM226.364 63.4557L226.294 61.9573L226.364 63.4557ZM225.104 63.2261L224.25 64.4594L225.104 63.2261ZM224.915 62.1905L226.332 61.6977L224.915 62.1905ZM223.731 60.8947L223.494 59.4135L223.731 60.8947ZM223.395 61.9864L221.896 62.04V62.04L223.395 61.9864ZM224.287 63.2006L222.812 63.4689V63.469L224.287 63.2006ZM223.231 63.1088L223.595 61.6536L223.231 63.1088ZM222.632 64.7055C223.373 65.076 224.274 64.7756 224.644 64.0347C225.015 63.2937 224.715 62.3927 223.974 62.0222L222.632 64.7055ZM227.824 65.7694C227.732 64.946 226.991 64.3527 226.167 64.4442C225.344 64.5357 224.751 65.2773 224.842 66.1007L227.824 65.7694ZM226.221 66.4656L225.747 65.0426L226.221 66.4656ZM225.364 66.3942L226.092 65.083L225.364 66.3942ZM224.787 65.8687L224.001 67.1462L224.787 65.8687ZM224.813 66.3126L223.613 67.2126L224.813 66.3126ZM224.991 66.3891L225.958 65.2417L224.991 66.3891ZM225.697 64.9432C225.199 64.2805 224.259 64.1462 223.597 64.6432C222.934 65.1403 222.799 66.0805 223.297 66.7432L225.697 64.9432ZM219.276 61.271C219.895 61.8213 220.843 61.7656 221.394 61.1464C221.944 60.5272 221.888 59.5791 221.269 59.0287L219.276 61.271ZM220.16 59.8744L220.243 61.3721L220.16 59.8744ZM220.181 58.1907C219.352 58.1907 218.681 58.8623 218.681 59.6907C218.681 60.5191 219.352 61.1907 220.181 61.1907V58.1907ZM224.588 70.1899C225.417 70.1899 226.088 69.5183 226.088 68.6899C226.088 67.8615 225.417 67.1899 224.588 67.1899V70.1899ZM224.236 68.644L224.813 67.2594L224.236 68.644ZM224.257 68.5114L223.7 69.9041L224.257 68.5114ZM225.282 69.6587C225.867 69.073 225.867 68.1232 225.282 67.5374C224.696 66.9516 223.746 66.9516 223.16 67.5374L225.282 69.6587ZM221.082 68.627C221.909 68.5856 222.546 67.8813 222.505 67.0539C222.464 66.2265 221.759 65.5893 220.932 65.6307L221.082 68.627ZM220.436 67.8634L221.675 67.0184L220.436 67.8634ZM221.313 68.4858L220.494 69.7423L221.313 68.4858ZM221.645 70.1898L220.202 70.6019L220.202 70.6019L221.645 70.1898ZM221.502 70.0214L222.356 68.7881L221.502 70.0214ZM220.915 69.5164L219.596 70.2296L220.915 69.5164ZM220.548 69.4245L219.063 69.2124L220.548 69.4245ZM220.089 69.6694L219.173 68.4817L220.089 69.6694ZM220.038 70.1541L220.153 68.6585L220.038 70.1541ZM222.513 68.322C221.803 67.8957 220.882 68.1261 220.455 68.8364C220.029 69.5468 220.259 70.4682 220.97 70.8944L222.513 68.322ZM216.941 62.4266C217.235 63.2011 218.101 63.5909 218.876 63.2971C219.651 63.0033 220.04 62.1372 219.746 61.3626L216.941 62.4266ZM217.385 60.2927L216.119 61.098L217.385 60.2927ZM216.65 59.5785L216.325 61.0427L216.65 59.5785ZM216.14 59.7621L217.64 59.7272L216.14 59.7621ZM217.211 60.4968L217.44 59.0142L217.211 60.4968ZM216.946 60.0121L216.748 61.4989L216.946 60.0121ZM216.374 61.8532C217.01 62.3835 217.956 62.2975 218.486 61.6611C219.017 61.0247 218.931 60.0788 218.294 59.5485L216.374 61.8532ZM217.242 64.8638C218.07 64.8638 218.742 64.1923 218.742 63.3638C218.742 62.5354 218.07 61.8638 217.242 61.8638V64.8638ZM215.65 63.0476L214.954 64.3763L215.65 63.0476ZM214.763 62.0885L214.516 63.568L214.763 62.0885ZM214.263 63.1496L215.526 62.341L214.263 63.1496ZM215.27 64.9495C216.095 65.0245 216.824 64.4165 216.899 63.5915C216.974 62.7665 216.366 62.0368 215.541 61.9618L215.27 64.9495ZM217.498 66.6721C217.601 67.4941 218.351 68.0772 219.173 67.9744C219.995 67.8717 220.578 67.122 220.475 66.3L217.498 66.6721ZM217.635 66.0014L217.361 67.4762L217.635 66.0014ZM215.712 65.8432L215.986 64.3685L215.712 65.8432ZM214.303 66.0065L212.922 66.5899L214.303 66.0065ZM218.344 67.0013L219.076 65.6919L218.344 67.0013ZM218.67 67.6798L217.555 66.6763L218.67 67.6798ZM217.834 67.8073L218.228 66.3602H218.228L217.834 67.8073ZM216.222 67.4961L215.846 68.9483L216.222 67.4961ZM215.905 68.4858L216.138 67.004H216.138L215.905 68.4858ZM216.768 68.695L217.677 67.5019L216.768 68.695ZM219.616 69.6274C220.235 69.077 220.291 68.1289 219.741 67.5097C219.19 66.8905 218.242 66.8348 217.623 67.3851L219.616 69.6274ZM222.217 59.6027C222.771 60.2185 223.719 60.2684 224.335 59.7142C224.951 59.16 225.001 58.2116 224.447 57.5958L222.217 59.6027ZM221.53 57.5709C221.16 58.3119 221.46 59.2129 222.201 59.5834C222.942 59.9539 223.843 59.6535 224.214 58.9126L221.53 57.5709ZM216.353 60.2079C217.016 60.705 217.956 60.5707 218.453 59.9079C218.95 59.2452 218.816 58.305 218.153 57.8079L216.353 60.2079ZM217.08 58.71L216.523 57.3172L217.08 58.71ZM218.544 59.3723C218.914 58.6313 218.614 57.7303 217.873 57.3598C217.132 56.9893 216.231 57.2897 215.861 58.0306L218.544 59.3723ZM224.261 63.7706C224.352 62.9473 223.759 62.2056 222.935 62.1141C222.112 62.0227 221.37 62.616 221.279 63.4393L224.261 63.7706ZM223.54 65.1831C224.214 64.7016 224.37 63.7648 223.888 63.0907C223.407 62.4165 222.47 62.2604 221.796 62.7419L223.54 65.1831ZM224.685 68.0268C225.096 67.3075 224.846 66.3913 224.127 65.9802C223.408 65.5692 222.491 65.8191 222.08 66.5384L224.685 68.0268ZM223.383 67.731L224.828 67.3295L223.383 67.731ZM223.428 67.9892L223.722 66.5183L223.428 67.9892ZM221.939 68.3505C222.247 69.1197 223.12 69.4938 223.889 69.1861C224.658 68.8784 225.032 68.0055 224.724 67.2363L221.939 68.3505ZM223.962 68.2405C223.137 68.3155 222.529 69.0451 222.604 69.8702C222.679 70.6952 223.409 71.3032 224.234 71.2282L223.962 68.2405ZM225.024 68.1373C224.283 67.7668 223.382 68.0672 223.012 68.8082C222.641 69.5491 222.941 70.4501 223.682 70.8206L225.024 68.1373ZM219.249 72.2996C220.074 72.382 220.809 71.7806 220.891 70.9563C220.974 70.1319 220.372 69.3969 219.548 69.3145L219.249 72.2996ZM219.018 70.6254L220.079 69.5647L219.018 70.6254ZM220.515 70.8727C220.777 70.0868 220.352 69.2373 219.567 68.9754C218.781 68.7134 217.931 69.1381 217.669 69.924L220.515 70.8727ZM217.356 71.3876C218.184 71.3876 218.856 70.716 218.856 69.8876C218.856 69.0592 218.184 68.3876 217.356 68.3876V71.3876ZM217.728 68.4863C217.039 68.0268 216.107 68.213 215.648 68.9023C215.188 69.5916 215.374 70.5229 216.064 70.9824L217.728 68.4863ZM242.971 104.068V102.568H241.471V104.068H242.971ZM221.007 104.068H222.507V102.568H221.007V104.068ZM178.028 83.2864H179.528V81.7864H178.028V83.2864ZM129.235 83.2864V81.7864H127.735V83.2864H129.235ZM109.382 83.7347H110.882V82.2347H109.382V83.7347ZM47.4668 83.7347V82.2347H45.9668V83.7347H47.4668ZM14.1391 83.2864V81.7864H13.2574L12.8285 82.5567L14.1391 83.2864ZM31.9879 83.2864H33.4879V81.7864H31.9879V83.2864ZM178.028 64.7478V66.2478H179.528V64.7478H178.028ZM102.652 64.7478H101.152V66.2478H102.652V64.7478ZM102.652 42.1793V40.6793H101.152V42.1793H102.652ZM178.028 42.1793H179.528V40.6793H178.028V42.1793ZM79.434 42.1793H80.934V40.6793H79.434V42.1793ZM43.3805 42.1793V40.6793H42.6847L42.2353 41.2106L43.3805 42.1793ZM79.434 64.7478V66.2478H80.934V64.7478H79.434ZM24.2913 64.7478L23.1461 63.7791L21.058 66.2478H24.2913V64.7478ZM230.263 19.9806L230.956 18.6504V18.6504L230.263 19.9806ZM159.52 19.9806H158.02V21.4806H159.52V19.9806ZM159.52 1.67686L159.58 0.178044L159.52 1.67686ZM143.36 1.76073L143.284 0.262614L143.36 1.76073ZM143.36 19.9806L143.364 21.4805L144.86 21.4759V19.9806H143.36ZM242.971 191.381H241.471V192.881H242.971V191.381ZM221.007 191.381V192.881H222.507V191.381H221.007ZM129.235 191.381H127.735V192.881H129.235V191.381ZM109.382 191.381V192.881H110.882V191.381H109.382ZM47.4668 191.381H45.9668V192.881H47.4668V191.381ZM31.9879 191.381V192.881H33.4879V191.381H31.9879ZM289.438 219.323L290.809 219.931L289.438 219.323ZM189.7 219.323V217.823H188.2V219.323H189.7ZM189.7 246.23H188.2V247.73H189.7V246.23ZM174.326 219.323H175.826V217.823H174.326V219.323ZM90.5383 219.323V217.823H89.0383V219.323H90.5383ZM90.5383 246.23H89.0383V247.73H90.5383V246.23ZM174.326 246.23V247.73H175.826V246.23H174.326ZM74.0653 219.323H75.5653V217.823H74.0653V219.323ZM74.0653 246.23V247.73H75.5653V246.23H74.0653ZM152.79 276.764V275.264H151.29V276.764H152.79ZM152.79 301.531L152.781 303.031L152.79 301.531ZM132.6 276.764H134.1V275.264H132.6V276.764ZM302.372 140.798H295.287V143.798H302.372V140.798ZM293.787 142.298V154.082H296.787V142.298H293.787ZM9.76377 140.798H2.37157V143.798H9.76377V140.798ZM11.2638 154.082V142.298H8.26377V154.082H11.2638ZM295.287 155.582H302.372V152.582H295.287V155.582ZM9.76377 152.582H2.37157V155.582H9.76377V152.582ZM233.88 92.7272C231.717 93.3115 229.255 93.6347 226.472 93.6347V96.6347C229.486 96.6347 232.215 96.2846 234.663 95.6234L233.88 92.7272ZM211.172 33.6347C209.865 33.6347 208.612 33.7005 207.412 33.8289L207.731 36.8118C208.819 36.6954 209.965 36.6347 211.172 36.6347V33.6347ZM246.296 65.1335C247.984 71.4771 247.848 77.7216 245.732 82.6994L248.493 83.8733C250.935 78.1282 251.007 71.1708 249.195 64.3621L246.296 65.1335ZM245.732 82.6994C243.725 87.4207 239.901 91.1009 233.88 92.7272L234.663 95.6234C241.582 93.7544 246.129 89.4326 248.493 83.8733L245.732 82.6994ZM211.172 36.6347C219.092 36.6347 225.984 39.2539 231.581 43.386L233.362 40.9725C227.293 36.4918 219.786 33.6347 211.172 33.6347V36.6347ZM231.581 43.3861C238.991 48.8565 244.126 56.9784 246.296 65.1335L249.195 64.3621C246.862 55.594 241.357 46.8746 233.362 40.9725L231.581 43.3861ZM188.243 65.1032C190.653 74.9849 197.14 85.5854 206.777 91.6068L208.366 89.0626C199.507 83.5273 193.417 73.6549 191.157 64.3924L188.243 65.1032ZM206.777 91.6068C212.444 95.1475 219.105 96.6347 226.472 96.6347V93.6347C219.504 93.6347 213.435 92.2294 208.366 89.0626L206.777 91.6068ZM207.412 33.8289C198.719 34.7592 192.914 38.9762 189.831 44.9464L192.497 46.3229C195.077 41.327 199.949 37.6446 207.731 36.8118L207.412 33.8289ZM189.831 44.9464C186.843 50.7322 186.505 57.9777 188.243 65.1032L191.157 64.3924C189.539 57.756 189.93 51.2939 192.497 46.3229L189.831 44.9464ZM215.613 49.4144L208.938 34.7006L206.206 35.94L212.881 50.6538L215.613 49.4144ZM231.136 41.4959L225.361 52.7802L228.032 54.1469L233.807 42.8627L231.136 41.4959ZM214.256 51.534C218.176 51.5104 222.522 52.4649 225.86 54.7085L227.533 52.2186C223.566 49.5525 218.584 48.5079 214.238 48.5341L214.256 51.534ZM234.334 66.2478H247.746V63.2478H234.334V66.2478ZM225.893 54.7304C229.736 57.1667 232.782 60.8069 232.834 64.7676L235.834 64.728C235.762 59.2625 231.678 54.8455 227.5 52.1967L225.893 54.7304ZM233.467 75.4656L246.246 84.5107L247.979 82.062L235.2 73.0169L233.467 75.4656ZM246.246 84.5107L246.879 84.959L248.612 82.5103L247.979 82.062L246.246 84.5107ZM232.849 64.9597C233.003 66.0378 233.189 67.8043 233.243 69.557C233.299 71.3819 233.2 72.9369 232.918 73.7468L235.75 74.7357C236.236 73.3423 236.298 71.2738 236.242 69.4644C236.184 67.5828 235.985 65.7043 235.819 64.5359L232.849 64.9597ZM235.638 93.5556L228.963 78.8418L226.231 80.0812L232.906 94.795L235.638 93.5556ZM233.02 73.5166C232.571 74.3306 230.632 76.6971 227.062 78.0602L228.132 80.8629C232.378 79.2421 234.862 76.3888 235.647 74.9659L233.02 73.5166ZM212.917 76.8474L206.242 89.6408L208.901 91.0285L215.576 78.2351L212.917 76.8474ZM227.277 77.9961C225.625 78.3567 223.002 78.6978 220.558 78.5535C219.338 78.4814 218.225 78.2915 217.323 77.9612C216.419 77.6302 215.826 77.1961 215.487 76.6978L213.006 78.3847C213.813 79.5707 215.024 80.3141 216.292 80.7783C217.561 81.2432 218.988 81.4659 220.381 81.5483C223.166 81.7128 226.072 81.3298 227.917 80.927L227.277 77.9961ZM190.353 46.8968L205.232 56.4533L206.853 53.9291L191.975 44.3726L190.353 46.8968ZM214.106 48.5406C212.765 48.6666 210.727 49.0969 208.877 50.0077C207.055 50.9049 205.118 52.4242 204.578 54.8677L207.507 55.5148C207.759 54.3745 208.722 53.4282 210.202 52.6992C211.655 51.9838 213.323 51.6274 214.387 51.5275L214.106 48.5406ZM205.311 63.2478H189.7V66.2478H205.311V63.2478ZM204.766 54.4045C204.104 55.4779 203.294 57.2596 202.943 59.2369C202.594 61.2062 202.668 63.5869 204.082 65.6076L206.54 63.888C205.761 62.7739 205.622 61.316 205.897 59.7605C206.172 58.2131 206.823 56.7839 207.32 55.9779L204.766 54.4045ZM203.828 64.9716C204.589 70.0201 207.065 76.8148 213.789 78.9697L214.704 76.1128C209.705 74.5106 207.516 69.3115 206.794 64.524L203.828 64.9716ZM222.435 60.8339C222.516 60.9147 222.549 60.9776 222.541 60.9639C222.53 60.9459 222.521 60.9256 222.473 60.8283C222.438 60.7573 222.368 60.6131 222.275 60.4681C222.182 60.3236 222.015 60.0958 221.746 59.9037L220.003 62.3449C219.84 62.2288 219.763 62.1093 219.751 62.0908C219.739 62.0718 219.741 62.0714 219.779 62.1479C219.803 62.198 219.865 62.3286 219.935 62.4509C220.007 62.5775 220.128 62.7699 220.314 62.9553L222.435 60.8339ZM221.746 59.9037C221.611 59.8073 221.385 59.6789 221.076 59.635C220.741 59.5873 220.407 59.6543 220.123 59.8136C219.863 59.9592 219.704 60.1481 219.617 60.2746C219.527 60.4036 219.475 60.5217 219.445 60.598C219.388 60.7465 219.365 60.8742 219.355 60.9355C219.343 61.0078 219.337 61.0714 219.334 61.1168C219.323 61.2747 219.328 61.4472 219.33 61.5079C219.331 61.5303 219.331 61.5446 219.331 61.5585C219.332 61.5725 219.332 61.5757 219.332 61.5732C219.332 61.5715 219.332 61.5644 219.332 61.5536C219.332 61.5444 219.333 61.5215 219.335 61.4909C219.336 61.4715 219.342 61.394 219.363 61.2952C219.373 61.249 219.397 61.1417 219.453 61.0133C219.482 60.9469 219.532 60.8451 219.613 60.7329C219.692 60.6236 219.833 60.4594 220.058 60.3247C220.302 60.1784 220.61 60.09 220.946 60.1165C221.263 60.1415 221.506 60.2611 221.66 60.3638C221.933 60.5459 222.07 60.7691 222.105 60.8272C222.198 60.9786 222.24 61.1118 222.245 61.1272C222.26 61.1697 222.268 61.2022 222.271 61.2141C222.275 61.2289 222.277 61.2388 222.278 61.2413C222.278 61.2433 222.273 61.2189 222.26 61.1431L219.306 61.6666C219.32 61.7457 219.335 61.8264 219.35 61.8939C219.355 61.9178 219.372 61.9929 219.4 62.0779C219.408 62.1032 219.422 62.1412 219.441 62.186C219.457 62.2255 219.491 62.3027 219.546 62.393C219.575 62.4396 219.619 62.5063 219.682 62.5801C219.741 62.6504 219.843 62.7585 219.995 62.8594C220.149 62.9624 220.392 63.0821 220.71 63.1072C221.046 63.1337 221.354 63.0452 221.599 62.8988C221.824 62.7639 221.965 62.5993 222.045 62.4896C222.126 62.377 222.176 62.2746 222.205 62.2076C222.261 62.0779 222.287 61.9688 222.297 61.9205C222.319 61.8174 222.325 61.7339 222.327 61.7071C222.332 61.6405 222.332 61.5832 222.332 61.5634C222.331 61.5154 222.33 61.4562 222.329 61.4286C222.326 61.3322 222.328 61.3135 222.327 61.3291C222.326 61.339 222.324 61.3701 222.316 61.4143C222.311 61.4473 222.293 61.5513 222.243 61.6815C222.217 61.7488 222.168 61.8592 222.083 61.9821C222 62.1025 221.846 62.2868 221.591 62.4296C221.312 62.5861 220.984 62.6521 220.654 62.6051C220.351 62.5621 220.131 62.4364 220.003 62.3449L221.746 59.9037ZM222.26 61.1431C222.25 61.0878 222.237 61.0304 222.233 61.0166C222.227 60.988 222.223 60.9693 222.218 60.9481C222.209 60.9034 222.207 60.886 222.207 60.8875C222.207 60.8897 222.209 60.9105 222.209 60.9455C222.209 60.9771 222.207 61.0501 222.186 61.1478C222.154 61.3008 221.985 61.8898 221.311 62.1326L220.295 59.3099C219.527 59.5863 219.306 60.2636 219.25 60.5335C219.19 60.8212 219.21 61.0781 219.224 61.2048C219.243 61.3889 219.337 61.8464 219.306 61.6666L222.26 61.1431ZM221.311 62.1326C220.862 62.2941 220.447 62.1997 220.177 62.0604C219.948 61.9421 219.818 61.7936 219.776 61.7439C219.692 61.6431 219.665 61.5726 219.695 61.6339C219.723 61.6906 219.728 61.706 219.781 61.8216C219.799 61.8613 219.83 61.9282 219.868 61.9979C219.888 62.0337 219.917 62.0853 219.956 62.143C219.99 62.194 220.058 62.2911 220.161 62.3941L222.282 60.2728C222.374 60.3651 222.431 60.4476 222.453 60.4807C222.479 60.5204 222.496 60.5508 222.503 60.5625C222.515 60.5842 222.517 60.5917 222.505 60.5654C222.498 60.549 222.434 60.4057 222.388 60.3126C222.345 60.2242 222.24 60.0129 222.075 59.8162C221.993 59.7185 221.822 59.5332 221.552 59.3938C221.241 59.2335 220.784 59.1337 220.295 59.3099L221.311 62.1326ZM221.221 61.3334C222.715 61.4696 222.715 61.4698 222.715 61.4699C222.715 61.4699 222.715 61.4701 222.715 61.4701C222.715 61.4703 222.715 61.4704 222.715 61.4706C222.715 61.4709 222.715 61.4711 222.715 61.4713C222.715 61.4717 222.715 61.472 222.715 61.4722C222.715 61.4725 222.715 61.4723 222.715 61.4716C222.715 61.4702 222.715 61.4669 222.716 61.462C222.717 61.4521 222.719 61.436 222.721 61.4158C222.726 61.3736 222.733 61.3223 222.742 61.2744C222.751 61.2184 222.756 61.2046 222.751 61.2225C222.748 61.2307 222.733 61.2825 222.696 61.3555C222.673 61.4013 222.569 61.6107 222.332 61.8007L220.458 59.4581C220.191 59.6717 220.059 59.9207 220.011 60.0179C219.949 60.1424 219.909 60.2573 219.885 60.3358C219.836 60.4946 219.805 60.6509 219.786 60.7591C219.766 60.8755 219.752 60.9825 219.743 61.0575C219.738 61.096 219.734 61.1283 219.732 61.1521C219.731 61.164 219.73 61.1739 219.729 61.1815C219.729 61.1853 219.728 61.1885 219.728 61.1912C219.728 61.1925 219.728 61.1936 219.728 61.1946C219.728 61.1951 219.728 61.1956 219.728 61.196C219.728 61.1962 219.728 61.1964 219.728 61.1966C219.728 61.1967 219.728 61.1969 219.728 61.1969C219.728 61.1971 219.728 61.1972 221.221 61.3334ZM222.332 61.8007C222.881 61.3613 223.086 60.8085 223.176 60.5727C223.289 60.2768 223.267 60.3741 223.198 60.4468L221.02 58.3836C220.594 58.8331 220.424 59.3709 220.373 59.5045C220.299 59.6983 220.325 59.5641 220.458 59.4581L222.332 61.8007ZM223.198 60.4468C223.317 60.3208 223.442 60.1635 223.545 59.971L220.899 58.5576C220.951 58.4605 221.001 58.4033 221.02 58.3836L223.198 60.4468ZM223.545 59.971C223.698 59.6846 223.788 59.3459 223.764 58.9779C223.741 58.6266 223.621 58.3488 223.516 58.1618C223.414 57.9824 223.299 57.8409 223.231 57.7595C223.194 57.7156 223.157 57.6739 223.13 57.6432C223.1 57.609 223.08 57.5856 223.059 57.5616L220.781 59.5139C220.817 59.5559 220.853 59.5963 220.878 59.6242C220.905 59.6557 220.922 59.6747 220.935 59.6903C220.966 59.7279 220.94 59.7013 220.903 59.637C220.863 59.5652 220.785 59.4027 220.77 59.1716C220.754 58.9237 220.817 58.7099 220.899 58.5576L223.545 59.971ZM223.059 57.5616C222.746 57.1966 222.362 57.0238 222.114 56.9374C221.853 56.8468 221.597 56.8029 221.408 56.7775C221.218 56.7517 221.024 56.7363 220.902 56.7256C220.834 56.7196 220.785 56.715 220.744 56.7104C220.703 56.7057 220.692 56.7032 220.699 56.7047L220.111 59.6464C220.306 59.6855 220.517 59.7034 220.641 59.7142C220.796 59.7278 220.904 59.7366 221.007 59.7505C221.112 59.7647 221.142 59.7759 221.129 59.7714C221.128 59.7711 220.954 59.7153 220.781 59.5139L223.059 57.5616ZM220.699 56.7047C220.7 56.7048 220.694 56.7036 220.678 56.6998C220.662 56.696 220.642 56.6911 220.615 56.6843C220.567 56.6723 220.488 56.6522 220.411 56.6338C220.265 56.5991 220.022 56.5447 219.762 56.5285C219.572 56.5167 219.003 56.4919 218.484 56.8661C217.773 57.3791 217.718 58.1668 217.808 58.6494L220.757 58.0996C220.772 58.1776 220.796 58.37 220.724 58.6159C220.643 58.8903 220.47 59.1325 220.239 59.2996C220.031 59.449 219.838 59.4952 219.744 59.511C219.647 59.5273 219.584 59.5232 219.575 59.5227C219.565 59.5221 219.601 59.5248 219.716 59.5523C219.757 59.562 219.994 59.623 220.111 59.6464L220.699 56.7047ZM217.808 58.6494C217.876 59.0134 218.03 59.5952 218.518 60.0201C219.104 60.529 219.762 60.4815 220.038 60.4418C220.166 60.4234 220.298 60.3925 220.33 60.3855C220.391 60.3723 220.385 60.3753 220.36 60.3778C220.275 60.3864 220.031 60.3867 219.787 60.2246L221.451 57.7284C221.209 57.5667 220.951 57.467 220.694 57.4181C220.444 57.3706 220.224 57.3763 220.058 57.3931C219.898 57.4092 219.76 57.4394 219.691 57.4543C219.595 57.4754 219.602 57.4736 219.61 57.4725C219.627 57.47 219.745 57.4525 219.911 57.4815C220.102 57.5149 220.309 57.6015 220.486 57.7558C220.65 57.8977 220.724 58.0408 220.749 58.0996C220.774 58.1556 220.77 58.1676 220.757 58.0996L217.808 58.6494ZM219.787 60.2246C220.219 60.5125 220.657 60.5491 220.877 60.5555C220.992 60.5589 221.097 60.5542 221.153 60.5517C221.188 60.5501 221.204 60.5493 221.224 60.5486C221.241 60.5479 221.247 60.5479 221.247 60.5479V57.5479C221.194 57.5479 221.147 57.5493 221.11 57.5507C221.076 57.552 221.038 57.5539 221.018 57.5547C220.964 57.5572 220.958 57.5566 220.965 57.5568C220.974 57.5571 221.03 57.5589 221.113 57.5786C221.2 57.5996 221.322 57.6422 221.451 57.7284L219.787 60.2246ZM221.247 60.5479C221.267 60.5479 221.302 60.5503 221.376 60.5694C221.416 60.5795 221.463 60.5935 221.526 60.614C221.602 60.6384 221.65 60.6553 221.752 60.6889L222.691 57.8397C222.455 57.7619 221.902 57.5479 221.247 57.5479V60.5479ZM221.752 60.6889C221.871 60.7282 222.024 60.7768 222.194 60.8194L222.922 57.909C222.859 57.8934 222.79 57.8721 222.691 57.8397L221.752 60.6889ZM222.194 60.8194C222.591 60.9186 223.014 60.9747 223.217 61.0094C223.458 61.0506 223.601 61.0885 223.736 61.1496L224.971 58.4155C224.497 58.2013 224.066 58.111 223.723 58.0524C223.343 57.9873 223.173 57.9717 222.922 57.909L222.194 60.8194ZM223.736 61.1496C223.804 61.1803 223.769 61.1718 223.708 61.1213C223.676 61.094 223.643 61.0611 223.613 61.0241C223.584 60.9878 223.566 60.9575 223.557 60.9403L226.212 59.5431C225.875 58.9042 225.387 58.6032 224.971 58.4155L223.736 61.1496ZM223.557 60.9403C223.683 61.1791 223.835 61.3566 223.938 61.4674C224.034 61.5692 224.149 61.677 224.182 61.7088C224.241 61.7647 224.234 61.7623 224.212 61.7349C224.187 61.7026 224.106 61.5911 224.057 61.4087L226.956 60.6357C226.868 60.3042 226.707 60.0564 226.582 59.8947C226.46 59.7379 226.331 59.6128 226.262 59.5468C226.169 59.4566 226.153 59.4432 226.13 59.4184C226.115 59.4025 226.162 59.4479 226.212 59.5431L223.557 60.9403ZM224.057 61.4087C224.084 61.5079 224.196 61.9786 224.269 62.2336C224.356 62.5389 224.501 62.9916 224.757 63.388L227.276 61.7582C227.284 61.7696 227.269 61.7498 227.242 61.679C227.215 61.6116 227.186 61.5233 227.154 61.4108C227.122 61.2986 227.092 61.1789 227.059 61.0458C227.029 60.9227 226.992 60.7701 226.956 60.6357L224.057 61.4087ZM224.757 63.388C224.859 63.5444 224.989 63.6755 224.992 63.6787C225.026 63.7147 225.086 63.7751 225.111 63.8013C225.192 63.8854 225.233 63.9322 225.249 63.9534C225.257 63.9637 225.23 63.9306 225.196 63.8618C225.173 63.8157 225.068 63.6004 225.076 63.2832C225.081 63.1062 225.122 62.8901 225.238 62.6716C225.355 62.4504 225.518 62.2858 225.683 62.1734C225.981 61.9715 226.251 61.9593 226.294 61.9573L226.433 64.9541C226.627 64.945 227.002 64.9038 227.368 64.656C227.825 64.3455 228.062 63.8535 228.075 63.3632C228.085 62.9715 227.953 62.67 227.885 62.5311C227.805 62.3694 227.712 62.2369 227.644 62.1463C227.508 61.9658 227.353 61.8048 227.268 61.7163C227.21 61.6563 227.193 61.6392 227.166 61.6115C227.109 61.5511 227.195 61.6325 227.276 61.7582L224.757 63.388ZM226.294 61.9573C226.13 61.9649 226.004 61.9624 225.914 61.9501C225.872 61.9444 225.856 61.9389 225.859 61.9402C225.863 61.9415 225.902 61.9545 225.957 61.9928L224.25 64.4594C224.692 64.7654 225.168 64.8765 225.511 64.9229C225.865 64.971 226.199 64.965 226.433 64.9541L226.294 61.9573ZM225.957 61.9928C226.084 62.0807 226.189 62.1912 226.269 62.3119C226.345 62.4286 226.386 62.5363 226.407 62.6124C226.428 62.6866 226.434 62.7408 226.435 62.7609C226.437 62.7813 226.436 62.7864 226.437 62.7652C226.437 62.742 226.438 62.7155 226.44 62.6598C226.442 62.6132 226.446 62.5382 226.446 62.4595C226.447 62.3798 226.445 62.2717 226.432 62.1507C226.419 62.0303 226.392 61.8717 226.332 61.6977L223.498 62.6833C223.436 62.506 223.447 62.3827 223.446 62.4388C223.446 62.4551 223.445 62.478 223.443 62.53C223.441 62.573 223.438 62.6459 223.437 62.7207C223.435 62.856 223.436 63.128 223.52 63.4264C223.614 63.7606 223.824 64.1645 224.25 64.4594L225.957 61.9928ZM226.332 61.6977C226.245 61.4479 226.059 60.9091 225.736 60.4458C225.409 59.9765 224.666 59.226 223.494 59.4135L223.968 62.3758C223.882 62.3896 223.781 62.3902 223.674 62.3689C223.569 62.3479 223.481 62.3103 223.415 62.2713C223.293 62.1998 223.254 62.1318 223.275 62.1614C223.292 62.1859 223.326 62.2435 223.371 62.3469C223.414 62.4474 223.454 62.5573 223.498 62.6833L226.332 61.6977ZM223.494 59.4135C222.917 59.5059 222.49 59.8427 222.235 60.2375C222.014 60.5797 221.941 60.9296 221.912 61.1431C221.856 61.5409 221.895 62.0154 221.896 62.04L224.894 61.9329C224.892 61.8794 224.888 61.8145 224.886 61.7778C224.884 61.7323 224.882 61.695 224.881 61.6599C224.88 61.5829 224.883 61.5551 224.883 61.559C224.882 61.5637 224.878 61.5935 224.863 61.6401C224.848 61.6859 224.818 61.768 224.755 61.8647C224.691 61.9649 224.59 62.0836 224.441 62.1855C224.29 62.2897 224.125 62.3508 223.968 62.3758L223.494 59.4135ZM221.896 62.04C221.934 63.1091 222.696 63.6615 222.9 63.8185C223.06 63.941 223.043 63.9289 223.028 63.9141C222.979 63.8629 222.856 63.7107 222.812 63.4689L225.763 62.9323C225.671 62.4262 225.415 62.0678 225.193 61.8365C225.005 61.6416 224.775 61.4755 224.726 61.438C224.624 61.3596 224.668 61.3823 224.724 61.4565C224.811 61.57 224.887 61.742 224.894 61.9329L221.896 62.04ZM222.812 63.469C222.712 62.9221 222.929 62.4709 223.167 62.2033C223.366 61.9802 223.58 61.875 223.665 61.8362C223.847 61.7533 224.003 61.7282 224.034 61.7229C224.134 61.706 224.212 61.7037 224.222 61.7033C224.249 61.7024 224.268 61.7025 224.275 61.7025C224.284 61.7026 224.289 61.7027 224.29 61.7028C224.292 61.7028 224.288 61.7027 224.277 61.7021C224.266 61.7016 224.251 61.7008 224.233 61.6996C224.159 61.695 224.05 61.6869 223.932 61.677C223.815 61.6671 223.698 61.6563 223.608 61.6466C223.562 61.6417 223.53 61.6379 223.51 61.6353C223.466 61.6294 223.517 61.6341 223.595 61.6536L222.868 64.564C223.023 64.6029 223.227 64.6231 223.289 64.6297C223.409 64.6424 223.549 64.6554 223.681 64.6664C223.812 64.6775 223.944 64.6875 224.048 64.6939C224.097 64.697 224.154 64.7001 224.205 64.7015C224.225 64.7021 224.275 64.7034 224.332 64.7013C224.349 64.7007 224.433 64.6981 224.536 64.6806C224.569 64.675 224.726 64.6495 224.909 64.5663C224.994 64.5272 225.209 64.4219 225.407 64.1985C225.646 63.9307 225.863 63.4793 225.763 62.9323L222.812 63.469ZM223.595 61.6536C223.483 61.6256 223.238 61.5737 222.938 61.6205C222.589 61.6749 222.087 61.8874 221.805 62.4367C221.569 62.8983 221.638 63.3228 221.676 63.489C221.72 63.6831 221.792 63.831 221.836 63.9126C221.927 64.0817 222.035 64.2166 222.119 64.309C222.167 64.362 222.35 64.5645 222.632 64.7055L223.974 62.0222C224.127 62.0987 224.224 62.1826 224.25 62.2052C224.291 62.2406 224.32 62.2709 224.339 62.2916C224.369 62.3241 224.422 62.3875 224.478 62.4908C224.504 62.5395 224.563 62.6559 224.601 62.8222C224.633 62.9606 224.702 63.361 224.475 63.8042C224.204 64.335 223.719 64.535 223.4 64.5848C223.129 64.6269 222.925 64.5784 222.868 64.564L223.595 61.6536ZM224.842 66.1007C224.863 66.2848 224.913 66.4575 224.916 66.4705C224.935 66.542 224.907 66.454 224.899 66.3326C224.889 66.1833 224.9 65.8621 225.119 65.5345C225.336 65.2113 225.619 65.085 225.747 65.0426L226.695 67.8886C226.97 67.797 227.344 67.6045 227.612 67.2034C227.884 66.798 227.908 66.3873 227.893 66.1423C227.879 65.9252 227.825 65.7354 227.817 65.7042C227.793 65.6146 227.814 65.684 227.824 65.7694L224.842 66.1007ZM225.747 65.0426C225.834 65.0134 225.89 65.0091 225.897 65.0085C225.91 65.0074 225.911 65.0082 225.905 65.0078C225.899 65.0073 225.904 65.0069 225.922 65.0115C225.933 65.0144 225.999 65.031 226.092 65.083L224.635 67.7054C225.003 67.9098 225.398 67.9768 225.666 67.9982C225.939 68.02 226.321 68.0135 226.695 67.8886L225.747 65.0426ZM226.092 65.083C226.177 65.1298 226.226 65.1754 226.239 65.1869C226.246 65.1934 226.242 65.1913 226.195 65.1382C226.161 65.1006 226.081 65.0089 225.99 64.9198C225.893 64.8248 225.755 64.7028 225.573 64.5912L224.001 67.1462C223.933 67.104 223.895 67.0667 223.892 67.0637C223.89 67.0618 223.893 67.0649 223.904 67.0774C223.917 67.0915 223.93 67.106 223.956 67.1345C223.996 67.1798 224.08 67.2751 224.181 67.3703C224.288 67.4704 224.438 67.5957 224.635 67.7054L226.092 65.083ZM225.573 64.5912C225.497 64.544 225.131 64.3103 224.634 64.3217C224.312 64.329 223.898 64.4429 223.564 64.7864C223.258 65.1009 223.168 65.4561 223.14 65.6578C223.091 66.0171 223.18 66.3112 223.202 66.3881C223.24 66.5157 223.287 66.6267 223.322 66.7041L226.055 65.4683C226.052 65.4596 226.063 65.4835 226.078 65.5329C226.086 65.5585 226.1 65.611 226.111 65.6831C226.12 65.7464 226.137 65.8862 226.112 66.0663C226.088 66.2431 226.006 66.5783 225.714 66.8788C225.393 67.2082 224.998 67.3141 224.702 67.3209C224.442 67.3268 224.25 67.2602 224.172 67.2297C224.081 67.1943 224.022 67.1588 224.001 67.1462L225.573 64.5912ZM223.322 66.7041C223.389 66.853 223.497 67.0587 223.613 67.2126L226.013 65.4126C226.023 65.4267 226.032 65.4385 226.038 65.4469C226.044 65.4555 226.049 65.4627 226.052 65.4681C226.059 65.4785 226.064 65.4859 226.066 65.4893C226.07 65.496 226.071 65.4973 226.068 65.4933C226.066 65.4898 226.064 65.4847 226.061 65.4791C226.058 65.4734 226.056 65.4696 226.055 65.4683L223.322 66.7041ZM223.613 67.2126C223.772 67.4243 223.956 67.5636 224.035 67.6208C224.134 67.6928 224.256 67.7701 224.387 67.833C224.422 67.8502 224.59 67.9328 224.811 67.9728C224.853 67.9805 225.288 68.0739 225.76 67.8374C226.066 67.6837 226.358 67.4029 226.503 66.9972C226.632 66.6346 226.59 66.3197 226.551 66.1495C226.479 65.8408 226.326 65.6353 226.293 65.5912C226.235 65.5118 226.18 65.4517 226.147 65.4171C226.079 65.3459 226.009 65.2853 225.958 65.2417L224.025 67.5365C224.041 67.5495 224.019 67.5328 223.983 67.4946C223.965 67.4765 223.922 67.4302 223.872 67.362C223.848 67.3292 223.699 67.1325 223.629 66.8302C223.59 66.6633 223.548 66.3511 223.677 65.9906C223.821 65.5871 224.111 65.3079 224.416 65.1553C224.883 64.9209 225.311 65.0145 225.344 65.0205C225.546 65.0571 225.686 65.1291 225.688 65.1301C225.752 65.1609 225.785 65.1842 225.8 65.195C225.811 65.2034 225.833 65.2199 225.862 65.2458C225.885 65.2668 225.946 65.3229 226.013 65.4126L223.613 67.2126ZM225.958 65.2417C225.914 65.2053 225.876 65.1672 225.83 65.1133L223.547 67.0591C223.682 67.218 223.836 67.3774 224.025 67.5365L225.958 65.2417ZM225.83 65.1133C225.794 65.0711 225.753 65.0188 225.697 64.9432L223.297 66.7432C223.37 66.8408 223.453 66.9488 223.547 67.0591L225.83 65.1133ZM221.269 59.0287C221.09 58.8694 220.906 58.7665 220.831 58.7251C220.663 58.632 220.763 58.6881 220.806 58.7177C220.834 58.7365 220.903 58.7848 220.982 58.8611C221.045 58.9219 221.224 59.102 221.336 59.4018C221.477 59.7785 221.477 60.2632 221.212 60.6967C221.001 61.0435 220.713 61.1988 220.606 61.2511C220.478 61.3139 220.372 61.3417 220.329 61.3521C220.278 61.3645 220.241 61.3701 220.228 61.372C220.202 61.3756 220.201 61.3744 220.243 61.3721L220.077 58.3767C219.998 58.381 219.904 58.388 219.808 58.4015C219.756 58.4089 219.528 58.4384 219.286 58.5574C219.165 58.6164 218.868 58.7789 218.652 59.1335C218.382 59.5747 218.382 60.0676 218.526 60.4531C218.642 60.7615 218.827 60.9509 218.901 61.0215C218.99 61.1076 219.072 61.1662 219.116 61.196C219.201 61.2543 219.283 61.2983 219.307 61.311C219.359 61.3398 219.35 61.3344 219.377 61.3491C219.417 61.3715 219.357 61.3432 219.276 61.271L221.269 59.0287ZM220.243 61.3721C220.342 61.3666 220.467 61.3544 220.601 61.3245C220.718 61.2986 220.946 61.2375 221.181 61.0776C221.441 60.9012 221.796 60.5346 221.852 59.9502C221.903 59.4222 221.674 59.0431 221.551 58.8781C221.318 58.5665 221.027 58.4168 220.918 58.3644C220.814 58.3141 220.537 58.1907 220.181 58.1907V61.1907C219.868 61.1907 219.659 61.0876 219.619 61.0684C219.574 61.047 219.345 60.9393 219.145 60.6708C219.038 60.5275 218.818 60.1704 218.866 59.6634C218.92 59.1002 219.263 58.7538 219.496 58.5956C219.705 58.4539 219.891 58.4091 219.95 58.3961C220.026 58.3792 220.075 58.3768 220.077 58.3767L220.243 61.3721ZM224.588 67.1899C224.552 67.1899 224.54 67.1899 224.53 67.1897C224.522 67.1895 224.532 67.1895 224.552 67.1913C224.592 67.1952 224.691 67.2084 224.813 67.2594L223.659 70.0286C224.099 70.2117 224.533 70.1899 224.588 70.1899V67.1899ZM224.813 67.2594C224.859 67.2784 224.932 67.3117 225.016 67.3653C225.098 67.4171 225.224 67.5089 225.347 67.6557L223.049 69.5845C223.288 69.8685 223.566 69.9897 223.659 70.0286L224.813 67.2594ZM225.347 67.6557C225.442 67.7683 225.54 67.9206 225.608 68.1147C225.678 68.3134 225.704 68.5238 225.687 68.7314C225.652 69.1323 225.467 69.4026 225.373 69.5217C225.273 69.6463 225.177 69.7235 225.144 69.7499C225.105 69.7802 225.074 69.8014 225.081 69.796C225.082 69.7958 225.082 69.7956 225.083 69.7949C225.084 69.7943 225.085 69.7934 225.087 69.7923C225.09 69.7903 225.095 69.7868 225.101 69.7826C225.112 69.7749 225.134 69.7596 225.16 69.7399C225.185 69.7209 225.227 69.6883 225.274 69.6446C225.319 69.6034 225.395 69.5295 225.473 69.4242C225.548 69.3233 225.666 69.1376 225.729 68.8751C225.799 68.5845 225.787 68.2455 225.643 67.9178C225.509 67.6134 225.307 67.4222 225.165 67.3157C225.024 67.21 224.893 67.1504 224.814 67.1186L223.7 69.9041C223.628 69.8753 223.503 69.8188 223.366 69.7164C223.228 69.6131 223.029 69.4252 222.896 69.1243C222.754 68.7999 222.743 68.4645 222.811 68.1776C222.873 67.9187 222.99 67.7368 223.062 67.6397C223.137 67.5383 223.209 67.4683 223.249 67.4312C223.293 67.3915 223.329 67.3631 223.349 67.3484C223.38 67.3246 223.413 67.3029 223.389 67.3188C223.384 67.3227 223.338 67.3534 223.287 67.3936C223.241 67.4299 223.134 67.5173 223.026 67.6524C222.923 67.7819 222.733 68.063 222.698 68.4749C222.679 68.6881 222.706 68.904 222.778 69.1084C222.848 69.3081 222.95 69.4662 223.049 69.5845L225.347 67.6557ZM224.814 67.1186C224.261 66.8976 223.69 66.9994 223.271 67.286C222.918 67.5269 222.698 67.8746 222.602 68.2188C222.556 68.3847 222.5 68.6865 222.592 69.0434C222.701 69.4648 223.046 69.985 223.708 70.1481C224.234 70.2777 224.648 70.0941 224.801 70.0158C224.989 69.9194 225.129 69.8024 225.217 69.7207L223.179 67.5195C223.203 67.4977 223.289 67.4195 223.434 67.3454C223.543 67.2894 223.924 67.1115 224.426 67.2353C225.063 67.3924 225.394 67.8949 225.496 68.2916C225.582 68.6237 225.528 68.8937 225.491 69.0254C225.414 69.3013 225.244 69.5713 224.963 69.7627C224.616 69.9998 224.141 70.0805 223.7 69.9041L224.814 67.1186ZM225.217 69.7207C225.24 69.6999 225.261 69.6792 225.282 69.6587L223.16 67.5374C223.165 67.5328 223.171 67.5267 223.179 67.5195L225.217 69.7207ZM220.932 65.6307C220.584 65.6481 219.895 65.7372 219.37 66.2466C219.053 66.5543 218.817 67.0041 218.817 67.546C218.816 68.0396 219.012 68.4379 219.196 68.7085L221.675 67.0184C221.694 67.046 221.817 67.234 221.817 67.5481C221.816 67.9105 221.653 68.2116 221.459 68.3994C221.297 68.5571 221.147 68.6066 221.115 68.6169C221.07 68.6308 221.058 68.6282 221.082 68.627L220.932 65.6307ZM219.196 68.7085C219.481 69.1263 219.853 69.37 220.068 69.4996C220.178 69.5661 220.293 69.6284 220.358 69.6643C220.438 69.7083 220.473 69.7287 220.494 69.7423L222.132 67.2294C222.009 67.1489 221.887 67.0814 221.807 67.037C221.712 66.9846 221.663 66.9583 221.615 66.9295C221.572 66.9037 221.565 66.8964 221.576 66.9049C221.588 66.915 221.629 66.9516 221.675 67.0184L219.196 68.7085ZM220.494 69.7423C220.299 69.6153 220.157 69.4385 220.072 69.2551C219.996 69.0916 219.983 68.9601 219.979 68.9181C219.976 68.8779 219.979 68.8616 219.976 68.9175C219.975 68.9386 219.966 69.073 219.966 69.1848H222.966C222.966 69.192 222.966 69.19 222.967 69.1685C222.969 69.1217 222.968 69.1454 222.972 69.0755C222.976 69.0013 222.983 68.8529 222.97 68.6862C222.944 68.3426 222.806 67.6685 222.132 67.2294L220.494 69.7423ZM219.966 69.1848C219.966 69.7668 220.097 70.2303 220.195 70.5766L223.08 69.7545C222.987 69.4274 222.966 69.3138 222.966 69.1848H219.966ZM220.195 70.5766C220.198 70.5853 220.201 70.5953 220.202 70.6019L223.087 69.7777C223.084 69.7681 223.082 69.762 223.08 69.7546L220.195 70.5766ZM220.202 70.6019C220.197 70.5824 220.124 70.3524 220.151 70.056C220.164 69.9055 220.221 69.5151 220.551 69.164C220.944 68.7447 221.449 68.6637 221.792 68.6976C222.082 68.7262 222.287 68.8321 222.365 68.8749C222.462 68.9278 222.533 68.9806 222.571 69.0104C222.647 69.0701 222.7 69.1241 222.72 69.1447C222.765 69.1914 222.797 69.2306 222.805 69.2401C222.818 69.2556 222.827 69.2679 222.831 69.2734C222.842 69.2881 222.852 69.3012 222.839 69.2842L220.412 71.0475C220.415 71.0508 220.42 71.0573 220.424 71.0636C220.428 71.0686 220.438 71.0819 220.449 71.0972C220.455 71.1048 220.466 71.1189 220.48 71.1359C220.489 71.147 220.522 71.1873 220.568 71.2347C220.588 71.2557 220.642 71.31 220.718 71.37C220.756 71.3999 220.827 71.4527 220.924 71.5057C221.002 71.5485 221.208 71.6544 221.497 71.6831C221.841 71.717 222.345 71.636 222.739 71.2166C223.068 70.8655 223.125 70.475 223.139 70.3244C223.165 70.0278 223.093 69.7975 223.087 69.7777L220.202 70.6019ZM222.839 69.2841C222.827 69.2665 222.783 69.2058 222.731 69.1421C222.712 69.1191 222.57 68.9365 222.356 68.7881L220.648 71.2547C220.586 71.2121 220.541 71.1732 220.514 71.1488C220.485 71.1231 220.464 71.1013 220.45 71.087C220.424 71.0595 220.407 71.0397 220.404 71.035C220.397 71.0269 220.396 71.0251 220.412 71.0475L222.839 69.2841ZM222.356 68.7881C222.258 68.7203 222.166 68.6644 222.118 68.6346C222.09 68.6173 222.075 68.6079 222.063 68.6002C222.052 68.5932 222.051 68.5922 222.055 68.5953C222.066 68.6033 222.101 68.63 222.142 68.6745C222.184 68.7204 222.215 68.7661 222.235 68.8031L219.596 70.2296C219.796 70.6013 220.05 70.8468 220.292 71.0222C220.393 71.0958 220.491 71.156 220.541 71.1866C220.602 71.2245 220.626 71.2392 220.648 71.2547L222.356 68.7881ZM222.235 68.8031C222.182 68.7047 222.155 68.6471 222.098 68.535C222.076 68.4928 222.037 68.417 221.991 68.3401C221.97 68.3053 221.84 68.0804 221.6 67.89C221.466 67.7835 221.186 67.597 220.778 67.562C220.318 67.5224 219.934 67.6943 219.678 67.9062C219.457 68.089 219.34 68.2901 219.289 68.3887C219.231 68.4998 219.196 68.5981 219.177 68.6591C219.113 68.8583 219.081 69.0878 219.063 69.2124L222.033 69.6367C222.058 69.4591 222.061 69.4893 222.034 69.5743C222.023 69.6068 221.998 69.6819 221.95 69.7747C221.908 69.8552 221.801 70.0432 221.59 70.2177C221.344 70.4212 220.97 70.5896 220.521 70.5509C220.125 70.5169 219.856 70.3359 219.734 70.239C219.606 70.1376 219.527 70.0391 219.495 69.997C219.458 69.9482 219.434 69.9099 219.425 69.8955C219.41 69.8696 219.406 69.8596 219.424 69.8955C219.447 69.9399 219.52 70.0889 219.596 70.2296L222.235 68.8031ZM219.063 69.2124C219.093 69.0043 219.171 68.8059 219.289 68.6339C219.402 68.4687 219.53 68.3594 219.629 68.2912C219.725 68.2246 219.808 68.1871 219.853 68.1687C219.899 68.1497 219.932 68.1404 219.937 68.1389C219.941 68.1377 219.941 68.138 219.913 68.145C219.894 68.1496 219.845 68.1618 219.794 68.1762C219.743 68.1909 219.659 68.2164 219.563 68.2562C219.471 68.2948 219.325 68.3638 219.173 68.4817L221.005 70.8571C220.881 70.9529 220.77 71.0033 220.717 71.0254C220.661 71.0488 220.621 71.0601 220.616 71.0615C220.612 71.0627 220.611 71.0627 220.642 71.0549C220.664 71.0495 220.713 71.0372 220.766 71.022C220.85 70.998 221.09 70.9279 221.334 70.7594C221.624 70.5591 221.954 70.1914 222.033 69.6367L219.063 69.2124ZM219.173 68.4817C218.961 68.6447 218.819 68.834 218.735 68.9615C218.644 69.1021 218.542 69.293 218.476 69.5216C218.423 69.7039 218.313 70.1758 218.546 70.6957C218.847 71.3692 219.469 71.6148 219.923 71.6497L220.153 68.6585C220.291 68.6691 220.508 68.71 220.738 68.8502C220.983 68.9996 221.172 69.219 221.284 69.4703C221.482 69.9122 221.379 70.2821 221.357 70.3576C221.321 70.4796 221.275 70.5591 221.246 70.6031C221.226 70.6341 221.155 70.7417 221.005 70.8571L219.173 68.4817ZM219.923 71.6497C220.536 71.6968 221.159 71.6759 221.657 71.6655L221.595 68.6662C221.033 68.6779 220.584 68.6917 220.153 68.6585L219.923 71.6497ZM221.657 71.6655C221.662 71.6654 221.662 71.6654 221.669 71.6653L221.607 68.6659C221.605 68.6659 221.597 68.6661 221.595 68.6662L221.657 71.6655ZM221.669 71.6653C221.837 71.6618 221.996 71.6592 222.15 71.6592V68.6592C221.964 68.6592 221.781 68.6623 221.607 68.6659L221.669 71.6653ZM222.15 71.6592C222.283 71.6592 222.517 71.652 222.77 71.5747C222.966 71.5146 223.692 71.2419 223.864 70.3851C224.009 69.6606 223.6 69.1591 223.53 69.0729C223.399 68.9111 223.259 68.7978 223.183 68.7396C222.937 68.5501 222.451 68.2848 222.513 68.322L220.97 70.8944C221.017 70.9229 221.214 71.033 221.234 71.0446C221.326 71.0978 221.359 71.1215 221.355 71.1183C221.35 71.1143 221.334 71.1017 221.311 71.0807C221.29 71.0613 221.248 71.021 221.199 70.9604C221.173 70.9289 220.786 70.4773 220.923 69.795C221.086 68.9804 221.773 68.7423 221.891 68.7062C222.065 68.6529 222.182 68.6592 222.15 68.6592V71.6592ZM219.746 61.3626C219.581 60.9276 219.358 60.553 219.165 60.2557C219.068 60.1065 218.968 59.9605 218.883 59.836C218.794 59.7056 218.719 59.5946 218.65 59.4874L216.119 61.098C216.216 61.2504 216.316 61.3976 216.404 61.5263C216.496 61.6609 216.574 61.775 216.648 61.8895C216.798 62.1194 216.888 62.286 216.941 62.4266L219.746 61.3626ZM218.65 59.4874C218.574 59.3671 218.61 59.4184 218.506 59.2525C218.446 59.1566 218.353 59.0136 218.229 58.8678C217.937 58.5257 217.532 58.2379 216.976 58.1142L216.325 61.0427C216.272 61.0309 216.192 61.0039 216.107 60.9501C216.023 60.8973 215.969 60.8419 215.945 60.8133C215.927 60.7921 215.928 60.7894 215.964 60.8456C215.981 60.8733 215.998 60.902 216.026 60.9475C216.051 60.9891 216.084 61.0418 216.119 61.098L218.65 59.4874ZM216.976 58.1142C216.969 58.1128 216.844 58.0829 216.738 58.0647C216.631 58.0463 216.41 58.0135 216.151 58.0423C215.882 58.0722 215.429 58.1866 215.065 58.5978C214.7 59.0105 214.633 59.4857 214.641 59.797L217.64 59.7272C217.643 59.8782 217.613 60.2447 217.312 60.5858C217.011 60.9255 216.648 61.0056 216.482 61.024C216.396 61.0336 216.33 61.0311 216.294 61.0287C216.258 61.0262 216.235 61.0222 216.23 61.0214C216.225 61.0206 216.228 61.021 216.246 61.0248C216.254 61.0267 216.263 61.0288 216.277 61.0319C216.289 61.0347 216.307 61.0388 216.325 61.0427L216.976 58.1142ZM214.641 59.797C214.665 60.8353 215.484 61.373 215.748 61.5303C216.124 61.7539 216.536 61.8907 216.845 61.9544L217.451 59.0162C217.444 59.0147 217.411 59.0067 217.367 58.9902C217.322 58.9735 217.293 58.9587 217.284 58.9531C217.267 58.9427 217.324 58.9718 217.4 59.0624C217.481 59.1592 217.632 59.387 217.64 59.7272L214.641 59.797ZM216.845 61.9544C216.889 61.9635 216.936 61.972 216.983 61.9793L217.44 59.0142C217.448 59.0155 217.452 59.0163 217.451 59.0162L216.845 61.9544ZM216.983 61.9793C217.131 62.002 217.535 62.0502 217.969 61.8333C218.556 61.5407 218.808 60.9788 218.827 60.5039C218.841 60.1381 218.724 59.859 218.673 59.7468C218.608 59.6055 218.534 59.4905 218.476 59.4094C218.361 59.2473 218.223 59.0981 218.085 58.977C218.016 58.9158 217.921 58.8398 217.807 58.7683C217.729 58.7195 217.485 58.5707 217.144 58.5253L216.748 61.4989C216.443 61.4583 216.245 61.3298 216.217 61.3126C216.154 61.2729 216.115 61.2399 216.103 61.2289C216.08 61.2084 216.06 61.1885 216.034 61.1515C216.021 61.1329 215.983 61.0793 215.945 60.9942C215.919 60.9383 215.816 60.7101 215.829 60.3859C215.836 60.2039 215.882 59.958 216.03 59.7077C216.184 59.4476 216.402 59.2625 216.63 59.149C217.027 58.9507 217.374 59.0041 217.44 59.0142L216.983 61.9793ZM217.144 58.5253C216.971 58.5021 216.516 58.4694 216.063 58.7757C215.537 59.1317 215.405 59.667 215.391 59.983C215.379 60.2651 215.447 60.4854 215.479 60.5798C215.518 60.6944 215.563 60.7888 215.596 60.8525C215.714 61.08 215.878 61.296 215.969 61.4124L218.327 59.5581C218.253 59.4642 218.239 59.4334 218.259 59.4718C218.268 59.4882 218.294 59.5389 218.319 59.615C218.338 59.6707 218.399 59.8575 218.388 60.1127C218.376 60.4017 218.252 60.9166 217.745 61.2602C217.31 61.5541 216.883 61.517 216.748 61.4989L217.144 58.5253ZM215.969 61.4124C216.026 61.4847 216.082 61.5528 216.132 61.6101C216.145 61.6248 216.252 61.7514 216.374 61.8532L218.294 59.5485C218.308 59.5604 218.32 59.5708 218.329 59.579C218.339 59.5873 218.347 59.5946 218.353 59.6005C218.366 59.6121 218.375 59.6217 218.381 59.6278C218.388 59.6343 218.393 59.6394 218.396 59.6428C218.4 59.6463 218.402 59.6489 218.403 59.6504C218.406 59.6534 218.407 59.6542 218.405 59.6525C218.404 59.651 218.401 59.6481 218.398 59.6437C218.39 59.6349 218.38 59.6225 218.367 59.6074C218.355 59.5923 218.341 59.5756 218.327 59.5581L215.969 61.4124ZM217.242 61.8638C216.9 61.8638 216.765 61.8567 216.664 61.8394C216.599 61.8282 216.516 61.8077 216.346 61.7188L214.954 64.3763C215.356 64.5866 215.737 64.7242 216.158 64.7964C216.544 64.8624 216.92 64.8638 217.242 64.8638V61.8638ZM216.346 61.7188C216.558 61.8295 216.656 61.9747 216.668 61.9933C216.674 62.0033 216.672 62.0002 216.653 61.9661C216.644 61.9495 216.635 61.9313 216.621 61.9046C216.608 61.8804 216.591 61.8474 216.573 61.8136C216.456 61.5965 216.033 60.7795 215.009 60.6089L214.516 63.568C214.291 63.5306 214.108 63.4147 213.992 63.2969C213.909 63.2125 213.884 63.148 213.93 63.2325C213.939 63.2496 213.948 63.268 213.962 63.2951C213.975 63.3196 213.993 63.3527 214.011 63.3869C214.047 63.4541 214.101 63.5503 214.169 63.6532C214.305 63.8575 214.547 64.1632 214.954 64.3763L216.346 61.7188ZM215.009 60.6089C214.628 60.5453 213.879 60.5327 213.325 61.1659C212.865 61.6919 212.882 62.3098 212.89 62.4933C212.901 62.7358 212.95 62.9803 212.967 63.0717C212.998 63.2383 212.987 63.2099 212.987 63.1394H215.987C215.987 62.8744 215.932 62.6043 215.916 62.5209C215.887 62.3625 215.887 62.3489 215.888 62.3642C215.888 62.3805 215.892 62.4653 215.866 62.5866C215.839 62.7118 215.769 62.9289 215.583 63.1415C215.139 63.6483 214.583 63.5791 214.516 63.568L215.009 60.6089ZM212.987 63.1394C212.987 62.9173 213.039 62.6432 213.2 62.3754C213.362 62.108 213.58 61.9361 213.773 61.8335C213.956 61.7363 214.122 61.6983 214.225 61.6817C214.332 61.6645 214.42 61.6629 214.475 61.664C214.58 61.666 214.657 61.68 214.677 61.6836C214.703 61.6884 214.719 61.6926 214.71 61.6904C214.705 61.6892 214.704 61.6889 214.692 61.6859C214.683 61.6838 214.667 61.68 214.65 61.6759C214.629 61.6712 214.54 61.6505 214.432 61.6395C214.379 61.6342 214.264 61.6247 214.121 61.6389C214.046 61.6463 213.937 61.6626 213.81 61.7028C213.684 61.7427 213.506 61.8173 213.326 61.9607C213.136 62.1124 212.964 62.3256 212.859 62.5975C212.757 62.8626 212.747 63.1112 212.767 63.3027C212.788 63.4878 212.838 63.6342 212.879 63.7298C212.92 63.8279 212.965 63.9051 212.999 63.9582L215.526 62.341C215.558 62.3901 215.601 62.4637 215.641 62.5586C215.68 62.6511 215.73 62.7946 215.75 62.9771C215.77 63.1661 215.76 63.4124 215.659 63.6756C215.555 63.9456 215.384 64.1572 215.195 64.3075C215.017 64.4495 214.841 64.5231 214.718 64.5621C214.594 64.6016 214.487 64.6173 214.416 64.6243C214.28 64.6379 214.173 64.6287 214.13 64.6243C214.078 64.619 214.038 64.612 214.02 64.6086C214 64.6049 213.986 64.6017 213.982 64.6008C213.978 64.5999 213.977 64.5995 213.983 64.6009C213.985 64.6015 213.999 64.605 214.009 64.6074C214.031 64.6126 214.078 64.6239 214.134 64.6342C214.184 64.6433 214.288 64.661 214.418 64.6634C214.485 64.6647 214.584 64.6625 214.701 64.6438C214.814 64.6255 214.988 64.5849 215.178 64.484C215.379 64.3776 215.603 64.2007 215.768 63.9269C215.934 63.6527 215.987 63.3708 215.987 63.1394H212.987ZM212.999 63.9582C213.264 64.3718 213.632 64.584 213.878 64.6913C214.13 64.801 214.374 64.8532 214.548 64.8817C214.73 64.9114 214.901 64.9253 215.023 64.9337C215.187 64.9448 215.212 64.9443 215.27 64.9495L215.541 61.9618C215.479 61.9561 215.415 61.9522 215.368 61.9493C215.314 61.946 215.273 61.9437 215.227 61.9406C215.136 61.9344 215.075 61.928 215.032 61.921C214.982 61.9128 215.009 61.9118 215.077 61.9412C215.138 61.9681 215.354 62.0728 215.526 62.341L212.999 63.9582ZM220.475 66.3C220.409 65.7729 220.111 65.4374 219.94 65.2812C219.761 65.1171 219.576 65.0144 219.455 64.9548C219.209 64.8333 218.948 64.7548 218.763 64.7055C218.382 64.6042 217.962 64.5365 217.909 64.5266L217.361 67.4762C217.518 67.5053 217.757 67.5422 217.991 67.6045C218.113 67.6371 218.148 67.6552 218.126 67.6443C218.117 67.64 218.026 67.5961 217.915 67.4942C217.812 67.4002 217.556 67.1303 217.498 66.6721L220.475 66.3ZM217.909 64.5266C217.46 64.4432 217.023 64.4326 216.72 64.4232C216.38 64.4127 216.173 64.4033 215.986 64.3685L215.437 67.3179C215.887 67.4017 216.324 67.4124 216.628 67.4218C216.969 67.4324 217.175 67.4416 217.361 67.4762L217.909 64.5266ZM215.986 64.3685C216.037 64.378 215.345 64.2126 214.913 64.1767C214.778 64.1655 214.608 64.1584 214.425 64.1738C214.258 64.1877 213.975 64.2277 213.68 64.38C213.347 64.552 212.969 64.8906 212.825 65.4414C212.696 65.9332 212.821 66.3528 212.922 66.5899L215.685 65.423C215.721 65.5063 215.831 65.8035 215.727 66.1992C215.609 66.6539 215.295 66.9226 215.057 67.0458C214.856 67.1491 214.698 67.1614 214.675 67.1633C214.636 67.1666 214.628 67.1633 214.665 67.1664C214.74 67.1727 214.856 67.192 215.007 67.2241C215.078 67.2392 215.145 67.2545 215.215 67.2704C215.272 67.2834 215.361 67.3038 215.437 67.3179L215.986 64.3685ZM212.922 66.5899C213.343 67.5887 214.129 68.0674 214.899 68.2478C215.515 68.3919 216.231 68.3533 216.507 68.3533V65.3533C216.393 65.3533 216.269 65.3552 216.173 65.3561C216.07 65.3571 215.982 65.3573 215.9 65.3554C215.73 65.3515 215.636 65.339 215.583 65.3267C215.539 65.3163 215.568 65.3158 215.619 65.3558C215.679 65.4019 215.694 65.444 215.685 65.423L212.922 66.5899ZM216.507 68.3533C216.701 68.3533 216.901 68.3414 217.047 68.3332C217.209 68.3242 217.331 68.3181 217.443 68.3183C217.691 68.3188 217.692 68.3556 217.612 68.3107L219.076 65.6919C218.475 65.3563 217.845 65.3191 217.449 65.3183C217.238 65.3179 217.034 65.3293 216.879 65.3379C216.708 65.3475 216.6 65.3533 216.507 65.3533V68.3533ZM217.612 68.3107C217.556 68.2794 217.53 68.257 217.519 68.2476C217.508 68.238 217.47 68.2043 217.423 68.1369C217.384 68.0805 217.27 67.9016 217.245 67.6192C217.214 67.2759 217.328 66.9288 217.555 66.6763L219.785 68.6832C220.124 68.3071 220.276 67.8259 220.232 67.3479C220.195 66.9308 220.019 66.6166 219.893 66.4341C219.65 66.0812 219.322 65.8296 219.076 65.6919L217.612 68.3107ZM217.555 66.6763C217.817 66.3853 218.109 66.3582 218.143 66.3553C218.198 66.3505 218.217 66.357 218.228 66.3602L217.439 69.2545C217.698 69.325 218.038 69.3756 218.401 69.3441C218.743 69.3146 219.329 69.19 219.785 68.6832L217.555 66.6763ZM218.228 66.3602C217.87 66.2624 217.521 66.2079 217.259 66.1668C216.973 66.1218 216.779 66.091 216.597 66.0439L215.846 68.9483C216.196 69.0389 216.541 69.0907 216.794 69.1304C217.071 69.174 217.263 69.2064 217.439 69.2545L218.228 66.3602ZM216.597 66.0439C215.468 65.7519 214.428 66.3801 214.044 67.2663C213.836 67.7474 213.778 68.4279 214.177 69.0498C214.562 69.6504 215.178 69.8899 215.673 69.9677L216.138 67.004C216.144 67.005 216.463 67.0587 216.701 67.4295C216.953 67.8216 216.897 68.2285 216.798 68.4575C216.632 68.8397 216.238 69.0498 215.846 68.9483L216.597 66.0439ZM215.673 69.9677C215.832 69.9928 215.967 70.0026 216.056 70.0084C216.077 70.0097 216.1 70.0111 216.114 70.012C216.131 70.0131 216.143 70.0139 216.153 70.0147C216.174 70.0162 216.178 70.0168 216.172 70.0161C216.155 70.0139 216.095 70.0046 216.018 69.9748C215.941 69.9446 215.886 69.9091 215.858 69.8882L217.677 67.5019C217.503 67.3695 217.313 67.2594 217.104 67.178C216.895 67.0972 216.707 67.0603 216.557 67.0409C216.429 67.0244 216.292 67.0174 216.252 67.0147C216.19 67.0107 216.162 67.0078 216.138 67.004L215.673 69.9677ZM215.858 69.8882C216.381 70.2865 217.042 70.4654 217.609 70.4654V67.4654C217.622 67.4654 217.627 67.4664 217.625 67.466C217.623 67.4657 217.619 67.4649 217.616 67.464C217.613 67.463 217.615 67.4633 217.623 67.4671C217.63 67.4708 217.649 67.481 217.677 67.5019L215.858 69.8882ZM217.609 70.4654H218.109V67.4654H217.609V70.4654ZM218.109 70.4654C218.644 70.4654 219.012 70.202 219.132 70.1116C219.286 69.9952 219.404 69.8694 219.464 69.8038C219.52 69.7428 219.602 69.6482 219.617 69.6306C219.658 69.5847 219.649 69.5979 219.616 69.6274L217.623 67.3851C217.508 67.4873 217.413 67.5943 217.366 67.6481C217.341 67.6765 217.31 67.7122 217.294 67.73C217.274 67.753 217.262 67.7669 217.253 67.777C217.243 67.7871 217.244 67.7859 217.252 67.7783C217.259 67.7716 217.284 67.7476 217.325 67.7166C217.364 67.6874 217.443 67.632 217.558 67.5809C217.674 67.5295 217.864 67.4654 218.109 67.4654V70.4654ZM224.447 57.5958C224.469 57.6211 224.508 57.6686 224.417 57.5545C224.369 57.4953 224.288 57.3957 224.193 57.2958C224.132 57.2324 223.926 57.0163 223.626 56.8701C223.475 56.7966 223.106 56.6438 222.633 56.7336C222.063 56.8419 221.703 57.2251 221.53 57.5709L224.214 58.9126C224.061 59.2175 223.729 59.5791 223.192 59.681C222.753 59.7645 222.422 59.6208 222.313 59.5678C222.182 59.5038 222.099 59.4361 222.075 59.4157C222.058 59.4013 222.046 59.3899 222.039 59.3833C222.031 59.3765 222.027 59.3721 222.026 59.371C222.024 59.3693 222.028 59.3734 222.039 59.3852C222.048 59.3966 222.06 59.4107 222.074 59.4283C222.09 59.4487 222.1 59.4616 222.121 59.4876C222.127 59.4951 222.17 59.5511 222.217 59.6027L224.447 57.5958ZM218.153 57.8079C218.193 57.8374 218.221 57.8621 218.229 57.8686C218.241 57.8789 218.25 57.8872 218.255 57.8919C218.266 57.9015 218.273 57.9084 218.276 57.9112C218.283 57.9174 218.285 57.9203 218.286 57.9205C218.286 57.921 218.287 57.9221 218.289 57.9244C218.291 57.9263 218.297 57.9334 218.306 57.9456C218.315 57.9563 218.335 57.9827 218.36 58.0225C218.38 58.0554 218.432 58.1407 218.476 58.2652C218.511 58.3621 218.611 58.6672 218.523 59.0596C218.41 59.5698 218.049 59.9382 217.637 60.1027L216.523 57.3172C216.088 57.4914 215.714 57.8759 215.595 58.4069C215.503 58.8201 215.607 59.1509 215.652 59.2764C215.747 59.5428 215.897 59.7347 215.941 59.7907C216.01 59.879 216.078 59.9528 216.124 60.0012C216.132 60.009 216.235 60.119 216.353 60.2079L218.153 57.8079ZM217.637 60.1027C217.474 60.168 217.271 60.2137 217.042 60.2042C216.812 60.1948 216.617 60.1324 216.466 60.0594C216.326 59.991 216.229 59.9154 216.19 59.8833C216.179 59.8744 216.17 59.8671 216.165 59.8623C216.159 59.8577 216.155 59.8542 216.155 59.8542C216.15 59.8492 216.169 59.8662 216.188 59.8819C216.21 59.9009 216.362 60.032 216.592 60.1263C216.721 60.1794 216.892 60.2286 217.096 60.2383C217.305 60.2483 217.51 60.2146 217.699 60.1436C218.058 60.0091 218.268 59.7772 218.358 59.6646C218.455 59.543 218.515 59.4308 218.544 59.3723L215.861 58.0306C215.878 57.9959 215.927 57.9009 216.015 57.7914C216.095 57.6909 216.296 57.4659 216.646 57.3345C216.832 57.265 217.033 57.232 217.238 57.2417C217.438 57.2512 217.605 57.2995 217.731 57.351C217.953 57.4422 218.097 57.5677 218.111 57.58C218.126 57.5925 218.141 57.6058 218.132 57.5972C218.128 57.5943 218.109 57.5771 218.084 57.557C218.036 57.5176 217.929 57.4349 217.778 57.3612C217.616 57.2828 217.409 57.2168 217.165 57.2068C216.922 57.1968 216.704 57.245 216.523 57.3172L217.637 60.1027ZM221.279 63.4393C221.305 63.2051 221.382 63.0387 221.396 63.0083C221.422 62.9504 221.446 62.9106 221.453 62.8983C221.468 62.8732 221.474 62.8648 221.458 62.8888C221.457 62.89 221.354 63.0348 221.309 63.1036C221.284 63.1427 221.221 63.2389 221.165 63.356C221.141 63.4074 221.079 63.5408 221.042 63.7192C221.023 63.8082 220.892 64.4141 221.338 64.975C221.859 65.6307 222.591 65.5534 222.764 65.5257C222.99 65.4893 223.158 65.4092 223.216 65.3808C223.356 65.3121 223.474 65.2299 223.54 65.1831L221.796 62.7419C221.76 62.7673 221.806 62.7309 221.896 62.6869C221.928 62.6708 222.076 62.5977 222.288 62.5636C222.447 62.5382 223.169 62.4586 223.686 63.1078C224.127 63.6624 223.994 64.2578 223.978 64.3329C223.944 64.4975 223.889 64.6137 223.874 64.6451C223.837 64.7222 223.806 64.7674 223.817 64.7495C223.847 64.7043 223.845 64.7113 223.928 64.5917C223.953 64.5553 223.997 64.4908 224.039 64.4188C224.06 64.3832 224.094 64.3223 224.129 64.2463C224.151 64.1978 224.233 64.0164 224.261 63.7706L221.279 63.4393ZM222.08 66.5384C221.849 66.9432 221.826 67.3401 221.842 67.5963C221.857 67.8417 221.914 68.0491 221.938 68.1324L224.828 67.3295C224.812 67.2701 224.83 67.3213 224.836 67.4122C224.842 67.5138 224.839 67.7579 224.685 68.0268L222.08 66.5384ZM221.938 68.1324C221.948 68.1702 221.958 68.1998 221.96 68.2067C221.964 68.2185 221.967 68.2281 221.969 68.2332C221.973 68.2432 221.976 68.2529 221.978 68.2565C221.982 68.2674 221.983 68.2725 221.986 68.2791C221.991 68.2943 221.991 68.2939 221.987 68.2825C221.986 68.2765 221.98 68.2558 221.973 68.2248C221.968 68.2012 221.954 68.1283 221.949 68.028C221.947 67.9886 221.923 67.6601 222.109 67.2971C222.223 67.0758 222.438 66.8007 222.801 66.6304C223.159 66.4623 223.498 66.4734 223.722 66.5183L223.134 69.4601C223.366 69.5065 223.711 69.517 224.074 69.3465C224.443 69.1739 224.661 68.8945 224.778 68.6674C224.97 68.2929 224.948 67.9465 224.945 67.8849C224.935 67.6765 224.884 67.5023 224.872 67.4601C224.851 67.3849 224.828 67.3189 224.815 67.2822C224.808 67.2627 224.802 67.2453 224.8 67.2389C224.782 67.1911 224.809 67.2614 224.828 67.3295L221.938 68.1324ZM223.722 66.5183C224.094 66.5927 224.327 66.787 224.408 66.86C224.509 66.9497 224.571 67.032 224.598 67.0694C224.654 67.146 224.681 67.2019 224.681 67.2023C224.686 67.2131 224.68 67.2003 224.675 67.1858C224.671 67.1725 224.683 67.2055 224.696 67.2656C224.7 67.2837 224.708 67.3193 224.715 67.3659C224.719 67.3937 224.737 67.5108 224.728 67.6625C224.724 67.7314 224.71 67.9085 224.629 68.1181C224.551 68.3183 224.313 68.7866 223.724 68.9913C223.146 69.1926 222.676 68.9822 222.502 68.8849C222.313 68.7796 222.193 68.6581 222.147 68.6092C222.045 68.5022 221.984 68.405 221.97 68.3821C221.946 68.3439 221.929 68.3136 221.922 68.2994C221.913 68.2831 221.907 68.2711 221.904 68.2654C221.903 68.2622 221.902 68.2598 221.901 68.2583C221.9 68.2568 221.9 68.256 221.9 68.2559C221.9 68.2559 221.901 68.2579 221.903 68.2624C221.905 68.2668 221.907 68.2731 221.911 68.2813C221.918 68.2979 221.927 68.3206 221.939 68.3505L224.724 67.2363C224.692 67.154 224.66 67.078 224.63 67.0128C224.616 66.9815 224.595 66.9371 224.569 66.889C224.557 66.8652 224.536 66.8272 224.508 66.7831C224.49 66.7543 224.426 66.6529 224.322 66.5432C224.274 66.493 224.153 66.3707 223.963 66.2648C223.788 66.167 223.318 65.9565 222.739 66.1579C222.149 66.3629 221.91 66.8318 221.832 67.0329C221.751 67.2435 221.737 67.4219 221.733 67.4924C221.724 67.6474 221.742 67.7691 221.747 67.8027C221.755 67.8551 221.764 67.8979 221.769 67.924C221.79 68.0168 221.817 68.0999 221.833 68.1459C221.868 68.2504 221.923 68.394 221.993 68.5342C222.025 68.5992 222.084 68.713 222.171 68.8326C222.214 68.8916 222.292 68.9916 222.407 69.0944C222.503 69.1804 222.749 69.3831 223.134 69.4601L223.722 66.5183ZM224.234 71.2282C224.515 71.2026 224.744 71.0999 224.797 71.0764C224.905 71.029 225.043 70.9587 225.181 70.8615C225.242 70.8184 225.62 70.5642 225.802 70.0717C225.921 69.7468 225.961 69.2892 225.731 68.8346C225.525 68.4297 225.204 68.2274 225.024 68.1373L223.682 70.8206C223.544 70.7512 223.248 70.5722 223.055 70.1922C222.837 69.7625 222.877 69.3315 222.987 69.0338C223.081 68.7772 223.224 68.6174 223.286 68.5534C223.358 68.4783 223.421 68.4311 223.453 68.4086C223.517 68.364 223.564 68.3415 223.591 68.3298C223.607 68.3225 223.636 68.3108 223.675 68.298C223.693 68.2924 223.804 68.2549 223.962 68.2405L224.234 71.2282ZM219.548 69.3145C219.669 69.3266 219.751 69.3528 219.775 69.3607C219.808 69.3718 219.831 69.3817 219.844 69.3882C219.858 69.3948 219.879 69.4057 219.907 69.4239C219.928 69.4371 219.996 69.482 220.079 69.5647L217.958 71.6861C218.172 71.8998 218.415 72.0298 218.549 72.0943C218.682 72.1579 218.941 72.2687 219.249 72.2996L219.548 69.3145ZM220.079 69.5647C220.231 69.717 220.36 69.9151 220.434 70.1517C220.507 70.3824 220.509 70.5929 220.49 70.7542C220.455 71.0397 220.341 71.2311 220.325 71.2596C220.306 71.2915 220.27 71.3468 220.316 71.2764C220.328 71.2577 220.357 71.2137 220.388 71.1587C220.417 71.1074 220.471 71.0065 220.515 70.8727L217.669 69.924C217.708 69.8062 217.754 69.7224 217.773 69.6891C217.784 69.6688 217.794 69.6533 217.799 69.6441C217.805 69.6349 217.809 69.6287 217.81 69.6276C217.831 69.596 217.765 69.6924 217.723 69.7653C217.683 69.8348 217.551 70.0672 217.512 70.3911C217.49 70.5716 217.494 70.8008 217.572 71.0491C217.651 71.3034 217.79 71.5183 217.958 71.6861L220.079 69.5647ZM217.356 68.3876C217.436 68.3876 217.525 68.4019 217.61 68.4318C217.688 68.4591 217.731 68.4885 217.728 68.4863L216.064 70.9824C216.374 71.1895 216.799 71.3876 217.356 71.3876V68.3876ZM296.323 104.438C299.275 116.046 300.872 128.665 300.872 142.298H303.872C303.872 128.43 302.247 115.562 299.23 103.698L296.323 104.438ZM297.776 102.568H242.971V105.568H297.776V102.568ZM295.287 140.798H242.971V143.798H295.287V140.798ZM241.471 104.068V142.298H244.471V104.068H241.471ZM242.971 140.798H221.007V143.798H242.971V140.798ZM222.507 142.298V104.068H219.507V142.298H222.507ZM221.007 102.568C207.407 102.568 196.941 101.753 189.897 98.8796C186.416 97.4594 183.859 95.5692 182.159 93.0985C180.462 90.6312 179.528 87.451 179.528 83.2864H176.528C176.528 87.9101 177.57 91.7218 179.687 94.7988C181.802 97.8724 184.896 100.079 188.764 101.657C196.419 104.78 207.443 105.568 221.007 105.568V102.568ZM178.028 81.7864H129.235V84.7864H178.028V81.7864ZM221.007 140.798H129.235V143.798H221.007V140.798ZM127.735 83.2864V142.298H130.736V83.2864H127.735ZM129.235 140.798H109.382V143.798H129.235V140.798ZM107.882 83.7347V142.298H110.882V83.7347H107.882ZM109.382 82.2347H47.4668V85.2347H109.382V82.2347ZM109.382 140.798H47.4668V143.798H109.382V140.798ZM45.9668 83.7347V142.298H48.9668V83.7347H45.9668ZM14.1391 84.7864H31.9879V81.7864H14.1391V84.7864ZM47.4668 140.798H31.9879V143.798H47.4668V140.798ZM31.9879 140.798H9.76377V143.798H31.9879V140.798ZM30.4879 83.2864V142.298H33.4879V83.2864H30.4879ZM178.028 63.2478H102.652V66.2478H178.028V63.2478ZM104.152 64.7478V42.1793H101.152V64.7478H104.152ZM102.652 43.6793H178.028V40.6793H102.652V43.6793ZM176.528 42.1793V64.7478H179.528V42.1793H176.528ZM79.434 40.6793H43.3805V43.6793H79.434V40.6793ZM77.934 42.1793V64.7478H80.934V42.1793H77.934ZM79.434 63.2478H24.2913V66.2478H79.434V63.2478ZM229.57 21.3107C261.267 37.8326 286.429 65.5358 296.323 104.438L299.23 103.698C289.102 63.8748 263.32 35.5198 230.956 18.6504L229.57 21.3107ZM230.263 18.4806H159.52V21.4806H230.263V18.4806ZM159.461 3.17567C184 4.15252 208.262 10.204 229.57 21.3107L230.956 18.6504C209.223 7.32197 184.523 1.17095 159.58 0.178044L159.461 3.17567ZM161.02 19.9806V1.67686H158.02V19.9806H161.02ZM143.435 3.25884C148.771 2.99087 154.122 2.96314 159.461 3.17567L159.58 0.178044C154.151 -0.0380603 148.71 -0.0098722 143.284 0.262614L143.435 3.25884ZM141.86 1.76073V19.9806H144.86V1.76073H141.86ZM74.7628 21.5255C95.6352 10.5626 119.369 4.46751 143.435 3.25884L143.284 0.262614C118.822 1.4912 94.6578 7.68731 73.3678 18.8696L74.7628 21.5255ZM143.355 18.4806L74.0606 18.6976L74.07 21.6976L143.364 21.4805L143.355 18.4806ZM42.2353 41.2106L23.1461 63.7791L25.4366 65.7165L44.5258 43.148L42.2353 41.2106ZM223.093 69.6334C222.303 70.0181 221.415 70.2347 220.472 70.2347V73.2347C221.879 73.2347 223.216 72.9103 224.406 72.3309L223.093 69.6334ZM220.472 70.2347C219.648 70.2347 218.867 70.0697 218.157 69.7724L216.999 72.5398C218.069 72.9879 219.244 73.2347 220.472 73.2347V70.2347ZM216.248 70.4623L212.917 76.8474L215.576 78.2351L218.908 71.85L216.248 70.4623ZM228.963 78.8418L225.116 70.3625L222.384 71.6019L226.231 80.0812L228.963 78.8418ZM219.592 64.0539L216.248 70.4623L218.908 71.85L222.251 65.4417L219.592 64.0539ZM225.116 70.3625L222.288 64.1281L219.556 65.3675L222.384 71.6019L225.116 70.3625ZM212.989 63.2478H205.311V66.2478H212.989V63.2478ZM218.157 69.7724C216.11 68.9156 214.642 66.958 214.485 64.6467L211.492 64.8489C211.727 68.3265 213.934 71.2572 216.999 72.5398L218.157 69.7724ZM214.485 64.6467C214.476 64.5108 214.472 64.3734 214.472 64.2347H211.472C211.472 64.4409 211.479 64.6457 211.492 64.8489L214.485 64.6467ZM220.922 63.2478H212.989V66.2478H220.922V63.2478ZM235.2 73.0169L227.367 67.4724L225.634 69.921L233.467 75.4656L235.2 73.0169ZM225.295 67.8034C224.721 68.5778 223.966 69.2088 223.093 69.6334L224.406 72.3309C225.716 71.6932 226.847 70.7482 227.705 69.59L225.295 67.8034ZM220.055 65.9721L225.634 69.921L227.367 67.4724L221.788 63.5235L220.055 65.9721ZM223.646 59.1422C225.346 60.2047 226.472 62.0889 226.472 64.2347H229.472C229.472 61.0118 227.777 58.186 225.236 56.5983L223.646 59.1422ZM226.472 64.2347C226.472 64.3734 226.467 64.5108 226.458 64.6467L229.451 64.8489C229.465 64.6457 229.472 64.4409 229.472 64.2347H226.472ZM227.954 66.2478H234.334V63.2478H227.954V66.2478ZM225.361 52.7802L223.106 57.1869L225.777 58.5536L228.032 54.1469L225.361 52.7802ZM226.458 64.6467C226.378 65.8249 225.959 66.9085 225.295 67.8034L227.705 69.59C228.7 68.2483 229.331 66.6181 229.451 64.8489L226.458 64.6467ZM220.922 66.2478H227.954V63.2478H220.922V66.2478ZM223.106 57.1869L219.586 64.0644L222.257 65.4312L225.777 58.5536L223.106 57.1869ZM220.472 58.2347C221.64 58.2347 222.726 58.5672 223.646 59.1422L225.236 56.5983C223.854 55.734 222.219 55.2347 220.472 55.2347V58.2347ZM218.138 58.7051C218.853 58.4027 219.641 58.2347 220.472 58.2347V55.2347C219.232 55.2347 218.048 55.486 216.969 55.9419L218.138 58.7051ZM212.881 50.6538L216.187 57.9432L218.92 56.7038L215.613 49.4144L212.881 50.6538ZM222.288 64.1281L218.92 56.7038L216.187 57.9432L219.556 65.3675L222.288 64.1281ZM205.232 56.4533L213.25 61.6029L214.871 59.0788L206.853 53.9291L205.232 56.4533ZM215.342 61.1207C215.994 60.0487 216.973 59.1974 218.138 58.7051L216.969 55.9419C215.22 56.6814 213.756 57.9564 212.779 59.561L215.342 61.1207ZM214.472 64.2347C214.472 63.0916 214.79 62.0274 215.342 61.1207L212.779 59.561C211.949 60.9243 211.472 62.526 211.472 64.2347H214.472ZM213.25 61.6029L220.111 66.0099L221.732 63.4857L214.871 59.0788L213.25 61.6029ZM12.8285 82.5567C12.7554 82.688 12.6826 82.8211 12.6101 82.9557L15.2516 84.3778C15.3176 84.2552 15.3836 84.1346 15.4497 84.016L12.8285 82.5567ZM12.5558 83.0675C9.70426 89.6106 7.32579 96.5373 5.47527 103.847L8.38352 104.583C10.1945 97.4299 12.5204 90.6578 15.3059 84.266L12.5558 83.0675ZM5.47119 103.863C4.57002 107.6 3.76564 111.455 3.08068 115.226L6.03239 115.762C6.70804 112.042 7.50087 108.244 8.3876 104.567L5.47119 103.863ZM3.07754 115.244C1.63152 123.793 0.871569 132.812 0.871569 142.298H3.87157C3.87157 132.972 4.61862 124.121 6.03553 115.744L3.07754 115.244ZM12.6101 82.9557C9.88525 88.0174 7.43551 95.7173 5.47119 103.863L8.3876 104.567C10.3375 96.4804 12.716 89.0881 15.2516 84.3778L12.6101 82.9557ZM3.08068 115.226C2.00049 121.174 1.21421 126.933 0.815216 131.718C0.422329 136.431 0.384815 140.399 0.911303 142.641L3.83184 141.955C3.42773 140.235 3.4093 136.712 3.80484 131.968C4.19428 127.297 4.96578 121.635 6.03239 115.762L3.08068 115.226ZM6.03553 115.744C6.68139 111.926 7.46646 108.205 8.38352 104.583L5.47527 103.847C4.53824 107.548 3.73664 111.347 3.07754 115.244L6.03553 115.744ZM15.3059 84.266C27.6412 55.9614 49.0227 35.0452 74.7628 21.5255L73.3678 18.8696C47.0973 32.6678 25.1954 54.0644 12.5558 83.0675L15.3059 84.266ZM295.287 152.582H242.971V155.582H295.287V152.582ZM241.471 154.082V191.381H244.471V154.082H241.471ZM242.971 192.881H298.51V189.881H242.971V192.881ZM242.971 155.582H302.372V152.582H242.971V155.582ZM242.971 152.582H221.007V155.582H242.971V152.582ZM219.507 154.082V191.381H222.507V154.082H219.507ZM221.007 189.881H129.235V192.881H221.007V189.881ZM221.007 152.582H129.235V155.582H221.007V152.582ZM130.736 191.381V154.082H127.735V191.381H130.736ZM129.235 152.582H109.382V155.582H129.235V152.582ZM107.882 154.082V191.381H110.882V154.082H107.882ZM109.382 189.881H47.4668V192.881H109.382V189.881ZM109.382 152.582H47.4668V155.582H109.382V152.582ZM48.9668 191.381V154.082H45.9668V191.381H48.9668ZM47.4668 152.582H31.9879V155.582H47.4668V152.582ZM31.9879 152.582H9.76377V155.582H31.9879V152.582ZM30.4879 154.082V191.381H33.4879V154.082H30.4879ZM0.871569 154.082C0.871569 167.514 2.29822 180.061 4.96061 191.715L7.88526 191.047C5.27544 179.623 3.87157 167.301 3.87157 154.082H0.871569ZM31.9879 189.881H6.42294V192.881H31.9879V189.881ZM300.872 154.062C300.839 156.517 300.26 163.862 299.513 171.511C298.765 179.161 297.867 186.942 297.213 190.279L300.157 190.856C300.844 187.351 301.754 179.42 302.498 171.803C303.242 164.185 303.836 156.708 303.871 154.103L300.872 154.062ZM297.218 190.255C297.161 190.524 297.103 190.793 297.044 191.061L299.975 191.701C300.035 191.427 300.094 191.154 300.152 190.879L297.218 190.255ZM297.213 190.279C297.155 190.573 297.102 190.822 297.052 191.028L299.968 191.733C300.031 191.473 300.094 191.178 300.157 190.856L297.213 190.279ZM300.152 190.879C302.577 179.482 303.872 167.217 303.872 154.082H300.872C300.872 167.019 299.596 179.074 297.218 190.255L300.152 190.879ZM290.809 219.931C294.676 211.209 297.771 201.799 299.975 191.701L297.044 191.061C294.882 200.966 291.85 210.183 288.067 218.715L290.809 219.931ZM289.438 217.823H189.7V220.823H289.438V217.823ZM188.2 219.323V246.23H191.2V219.323H188.2ZM274.701 247.142C280.96 238.972 286.389 229.903 290.809 219.931L288.067 218.715C283.742 228.47 278.435 237.335 272.32 245.317L274.701 247.142ZM189.7 247.73H273.51V244.73H189.7V247.73ZM174.326 217.823H90.5383V220.823H174.326V217.823ZM89.0383 219.323V246.23H92.0383V219.323H89.0383ZM90.5383 247.73H174.326V244.73H90.5383V247.73ZM175.826 246.23V219.323H172.826V246.23H175.826ZM4.96061 191.715C7.26484 201.801 10.494 211.215 14.5226 219.951L17.2469 218.695C13.3067 210.15 10.144 200.933 7.88526 191.047L4.96061 191.715ZM74.0653 217.823H15.8847V220.823H74.0653V217.823ZM72.5653 219.323V246.23H75.5653V219.323H72.5653ZM14.5226 219.951C19.1129 229.906 24.7391 238.978 31.2126 247.16L33.5653 245.299C27.2373 237.301 21.7365 228.432 17.2469 218.695L14.5226 219.951ZM74.0653 244.73H32.389V247.73H74.0653V244.73ZM241.262 278.02C253.884 269.782 265.238 259.495 274.701 247.142L272.32 245.317C263.074 257.386 251.975 267.445 239.622 275.508L241.262 278.02ZM240.442 275.264H152.79V278.264H240.442V275.264ZM152.781 303.031C184.051 303.225 215.33 294.947 241.262 278.02L239.622 275.508C214.234 292.079 183.545 300.222 152.799 300.031L152.781 303.031ZM151.29 276.764V301.531H154.29V276.764H151.29ZM31.2126 247.16C40.9575 259.477 52.6169 269.771 65.5426 278.028L67.1576 275.5C54.4963 267.412 43.091 257.339 33.5653 245.299L31.2126 247.16ZM132.6 275.264H66.3501V278.264H132.6V275.264ZM65.5426 278.028C85.5863 290.832 108.676 298.739 132.415 301.703L132.786 298.726C109.454 295.813 86.7958 288.045 67.1576 275.5L65.5426 278.028ZM132.415 301.703C139.168 302.546 145.975 302.989 152.781 303.031L152.799 300.031C146.111 299.99 139.422 299.554 132.786 298.726L132.415 301.703ZM131.1 276.764V300.214H134.1V276.764H131.1Z" fill="black"/>
</svg>
