<svg width="73" height="79" viewBox="0 0 73 79" fill="none" xmlns="http://www.w3.org/2000/svg">
<path fill-rule="evenodd" clip-rule="evenodd" d="M70 42.6136C70 -9.70337 3 -10.7034 3 42.6137H13C13 40.0812 13.1966 37.7095 13.5637 35.5C18.3976 6.41045 52.7995 5.4222 57.4745 35.5C57.817 37.704 58 40.0749 58 42.6137L70 42.6136Z" fill="#909090"/>
<path d="M49 35.5L41.5 24.5H29L20.5 35.5V48H49V35.5Z" fill="#909090"/>
<path d="M49 48H20.5L7.5 57V76.5H62V57L49 48Z" fill="#909090"/>
<path d="M57.4745 35.5C57.817 37.704 58 40.0749 58 42.6137L70 42.6136C70 -9.70337 3 -10.7034 3 42.6137H13C13 40.0812 13.1966 37.7095 13.5637 35.5M57.4745 35.5H49M57.4745 35.5C52.7995 5.4222 18.3976 6.41045 13.5637 35.5M49 35.5L41.5 24.5H29L20.5 35.5M49 35.5V48M20.5 35.5H13.5637M20.5 35.5V48M49 48H20.5M49 48L62 57V76.5H7.5V57L20.5 48" stroke="black" stroke-width="5"/>
</svg>
