<svg width="420" height="206" viewBox="0 0 420 206" fill="none" xmlns="http://www.w3.org/2000/svg">
<path d="M328.611 158.748L308.809 202.199C389.073 207.617 400.925 175.489 396.818 158.748H328.611Z" fill="#909090" style="fill:#909090;fill:color(display-p3 0.5647 0.5647 0.5647);fill-opacity:1;"/>
<path fill-rule="evenodd" clip-rule="evenodd" d="M318.93 3L328.611 13.7218L417.5 36.294V127.711V158.748H396.818H328.611L308.809 202.199H247.643L242.362 177.37L217.72 158.748H162.274H150.833V150.848V127.711V74.1024V36.294L217.72 13.7218L225.641 3H248.963H272.285H295.608H318.93Z" fill="#606060" style="fill:#606060;fill:color(display-p3 0.3765 0.3765 0.3765);fill-opacity:1;"/>
<path d="M242.362 177.37L217.72 158.748H162.274C159.194 175.865 171.955 208.52 247.643 202.199L242.362 177.37Z" fill="#909090" style="fill:#909090;fill:color(display-p3 0.5647 0.5647 0.5647);fill-opacity:1;"/>
<path d="M150.833 74.1024H118.27V127.711H150.833V74.1024Z" fill="#606060" style="fill:#606060;fill:color(display-p3 0.3765 0.3765 0.3765);fill-opacity:1;"/>
<path d="M118.27 127.711V74.1024V62.8163L31.5814 88.21L17.5 142.948H31.5814L37.082 150.848L42.5825 158.748H66.3449L82.1865 142.948H118.27V127.711Z" fill="#909090" style="fill:#909090;fill:color(display-p3 0.5647 0.5647 0.5647);fill-opacity:1;"/>
<path d="M201 59H179V89H201V59Z" fill="#606060" style="fill:#606060;fill:color(display-p3 0.3765 0.3765 0.3765);fill-opacity:1;"/>
<path d="M365 51H343V72H365V51Z" fill="#606060" style="fill:#606060;fill:color(display-p3 0.3765 0.3765 0.3765);fill-opacity:1;"/>
<path d="M410 96H378V122H410V96Z" fill="#606060" style="fill:#606060;fill:color(display-p3 0.3765 0.3765 0.3765);fill-opacity:1;"/>
<path d="M217.72 13.7218L225.641 3H248.963M217.72 13.7218L150.833 36.294V74.1024M217.72 13.7218V138M217.72 158.748H328.611M217.72 158.748L242.362 177.37L247.643 202.199M217.72 158.748H162.274M217.72 158.748V138M328.611 158.748L308.809 202.199M328.611 158.748C328.611 158.748 370.182 158.748 396.818 158.748M328.611 158.748H396.818M328.611 158.748V138M328.611 13.7218L318.93 3H295.608M328.611 13.7218L417.5 36.294V127.711M328.611 13.7218V138M247.643 202.199H308.809M247.643 202.199C171.955 208.52 159.194 175.865 162.274 158.748M308.809 202.199C389.073 207.617 400.925 175.489 396.818 158.748M396.818 158.748H417.5V127.711M162.274 158.748H150.833V150.848M150.833 74.1024H118.27M150.833 74.1024V127.711M118.27 74.1024V127.711M118.27 74.1024V62.8163L31.5814 88.21L17.5 142.948H31.5814L37.082 150.848M118.27 127.711H150.833M118.27 127.711V142.948H82.1865L66.3449 158.748H42.5825L37.082 150.848M150.833 127.711V150.848M37.082 150.848H0M217.72 138H195.5L188 150.848H150.833M272.285 3V88.21M272.285 3H295.608M272.285 3H248.963M272.285 88.21H295.608M272.285 88.21H248.963M295.608 3V88.21M295.608 88.21H318.93V142.948H225.641V88.21H248.963M248.963 3V88.21M417.5 127.711H371.5L361 138H328.611M179 59H201V89H179V59ZM343 51H365V72H343V51ZM378 96H410V122H378V96ZM107 114.5H90.5V130H107V114.5ZM50 96C42.5825 96 37.082 101.289 37.082 114.5C37.082 127.711 66.3449 128.5 66.3449 114.5C66.3449 100.5 65.9186 96 50 96Z" stroke="black" style="stroke:black;stroke-opacity:1;" stroke-width="5"/>
</svg>
